<svg width="616" height="377" fill="none" xmlns="http://www.w3.org/2000/svg"><g clip-path="url(#a)"><path d="M593.616.736H22.384C10.02.736 0 10.757 0 23.12v331.279c0 12.362 10.021 22.384 22.384 22.384h571.232c12.362 0 22.384-10.022 22.384-22.384V23.119C616 10.759 605.978.737 593.616.737Z" fill="url(#b)"/><path d="M344.709 46.11h270.843v142.361H344.709c-12.115 0-21.936-9.821-21.936-21.936V68.046c0-12.114 9.821-21.936 21.936-21.936Z" fill="#fff" stroke="#EAEFFF"/><path d="M397.859 157.634V147.33h3.357v-3.358h-41.96a1.674 1.674 0 0 1-1.678-1.678V76.837h77.205v13.428h3.357V76.837h3.356a1.68 1.68 0 0 0 1.679-1.678v-6.713a5.037 5.037 0 0 0-5.035-5.035h-83.919a5.034 5.034 0 0 0-5.035 5.035v6.713a1.678 1.678 0 0 0 1.679 1.678h3.356v65.457a5.036 5.036 0 0 0 5.035 5.036h35.246v10.304a6.713 6.713 0 0 0-4.981 7.347 6.713 6.713 0 1 0 8.338-7.347Zm-45.316-89.188a1.68 1.68 0 0 1 1.678-1.679h83.919a1.68 1.68 0 0 1 1.679 1.679v5.035h-87.276v-5.035Zm43.637 99.024a3.355 3.355 0 0 1-3.1-2.072 3.353 3.353 0 0 1 2.446-4.577 3.352 3.352 0 0 1 3.446 1.427 3.358 3.358 0 0 1-2.792 5.222Z" fill="url(#c)"/><path d="M426.391 93.621a30.004 30.004 0 0 0-16.313 4.817l-12.722-12.722a1.68 1.68 0 0 0-1.176-.487h-31.888v3.357h31.201l11.832 11.833a30.208 30.208 0 0 0-7.226 38.247 30.21 30.21 0 0 0 36.463 13.622 30.213 30.213 0 0 0 19.622-33.617 30.214 30.214 0 0 0-29.793-25.05Zm1.679 3.441a26.707 26.707 0 0 1 16.062 6.713l-16.062 16.012V97.062Zm-28.532 26.77a26.853 26.853 0 0 1 25.175-26.77v26.77a1.69 1.69 0 0 0 .487 1.192l18.932 18.948a26.85 26.85 0 0 1-44.594-20.14Zm46.994 17.741-17.774-17.741 17.774-17.74a26.686 26.686 0 0 1 0 35.481Z" fill="url(#d)"/><path d="M391.146 93.621a1.68 1.68 0 0 0-1.679-1.678H365.97a1.679 1.679 0 0 0-1.678 1.679v10.069c0 .445.176.872.491 1.188.315.314.742.491 1.187.491h23.497a1.682 1.682 0 0 0 1.679-1.679v-10.07Zm-3.357 8.392h-20.141V95.3h20.141v6.713Z" fill="url(#e)"/><path d="M391.146 110.406a1.681 1.681 0 0 0-1.679-1.679H365.97a1.68 1.68 0 0 0-1.678 1.679v10.07a1.674 1.674 0 0 0 1.678 1.677h23.497a1.678 1.678 0 0 0 1.679-1.677v-10.07Zm-3.357 8.391h-20.141v-6.714h20.141v6.714Z" fill="url(#f)"/><path d="M389.467 125.51H365.97a1.679 1.679 0 0 0-1.678 1.679v10.07a1.678 1.678 0 0 0 1.678 1.679h23.497a1.683 1.683 0 0 0 1.679-1.679v-10.07a1.679 1.679 0 0 0-1.679-1.679Zm-1.678 10.071h-20.141v-6.713h20.141v6.713Z" fill="url(#g)"/><path d="M431.427 80.194h-3.357v3.357h3.357v-3.357Z" fill="url(#h)"/><path d="M424.713 80.194h-3.357v3.357h3.357v-3.357Z" fill="url(#i)"/><path d="M431.427 86.908h-3.357v3.357h3.357v-3.357Z" fill="url(#j)"/><path d="m494.021 110.864-4.618-15.044h-.117l.078 1.627c.044.716.083 1.482.118 2.295.035.813.053 1.548.053 2.203v8.919h-3.634V91.689h5.536l4.537 14.663h.079l4.813-14.663h5.535v19.175h-3.791v-9.076c0-.604.009-1.299.027-2.085a136.8 136.8 0 0 1 .092-2.243l.078-1.613h-.118l-4.944 15.017h-3.724Zm30.23-7.358c0 1.224-.166 2.308-.498 3.253-.324.944-.8 1.744-1.43 2.4a6.008 6.008 0 0 1-2.256 1.469c-.874.332-1.862.498-2.963.498-1.032 0-1.981-.166-2.847-.498a6.343 6.343 0 0 1-2.243-1.469c-.629-.656-1.119-1.456-1.468-2.4-.341-.945-.512-2.029-.512-3.253 0-1.626.289-3.003.866-4.131.577-1.128 1.399-1.985 2.465-2.57 1.068-.586 2.339-.88 3.817-.88 1.373 0 2.588.294 3.646.88 1.067.585 1.902 1.442 2.505 2.57.613 1.128.918 2.505.918 4.131Zm-10.138 0c0 .962.105 1.771.315 2.426.21.657.537 1.15.983 1.482.446.333 1.028.499 1.745.499.709 0 1.281-.166 1.718-.499.446-.332.77-.825.97-1.482.211-.655.315-1.464.315-2.426 0-.971-.104-1.775-.315-2.413-.2-.647-.524-1.133-.97-1.456-.446-.323-1.027-.485-1.745-.485-1.057 0-1.827.362-2.308 1.089-.472.725-.708 1.814-.708 3.265Zm21.627-7.581c.202 0 .434.013.696.04.27.017.49.043.655.078l-.301 3.752a2.43 2.43 0 0 0-.565-.093 5.713 5.713 0 0 0-.615-.039c-.516 0-1.019.065-1.509.197-.481.13-.913.346-1.298.643a3.017 3.017 0 0 0-.918 1.154c-.219.472-.328 1.054-.328 1.744v7.463h-4V96.201h3.03l.59 2.466h.196a6.154 6.154 0 0 1 1.076-1.364 5.14 5.14 0 0 1 1.482-.998 4.333 4.333 0 0 1 1.809-.38Zm10.06 0c1.355 0 2.523.262 3.502.787a5.38 5.38 0 0 1 2.269 2.256c.533.988.8 2.195.8 3.62v1.941h-9.456c.044 1.128.38 2.016 1.01 2.662.638.639 1.521.958 2.649.958.936 0 1.792-.097 2.571-.288a13.191 13.191 0 0 0 2.4-.866v3.095a9.544 9.544 0 0 1-2.282.787c-.787.166-1.744.249-2.873.249-1.469 0-2.772-.271-3.908-.813-1.128-.542-2.015-1.369-2.663-2.479-.638-1.11-.957-2.51-.957-4.196 0-1.714.289-3.14.865-4.277.587-1.145 1.4-2.002 2.44-2.57 1.04-.577 2.252-.866 3.633-.866Zm.026 2.846c-.778 0-1.425.25-1.941.748-.507.499-.8 1.281-.878 2.348h5.613c-.009-.595-.118-1.124-.328-1.587a2.463 2.463 0 0 0-.918-1.102c-.403-.27-.918-.407-1.548-.407Zm-59.332 47.169a7.906 7.906 0 0 1-1.502-.126 5.061 5.061 0 0 1-1.196-.385v-1.315c.33.168.718.323 1.164.464.446.137.963.205 1.55.205.362 0 .708-.042 1.039-.126.33-.084.624-.215.882-.393.261-.178.466-.406.613-.685.152-.277.228-.609.228-.991 0-.31-.068-.583-.205-.818-.13-.242-.34-.473-.629-.693a8.515 8.515 0 0 0-1.133-.724 9.071 9.071 0 0 1-1.078-.74 3.015 3.015 0 0 1-.747-.913c-.184-.352-.276-.776-.276-1.275 0-.535.099-1.007.299-1.416.2-.415.472-.761.818-1.039a3.608 3.608 0 0 1 1.205-.637 4.69 4.69 0 0 1 1.447-.22c.604 0 1.128.06 1.574.18.446.121.876.283 1.291.488l-.512 1.134a5.83 5.83 0 0 0-1.062-.425 4.18 4.18 0 0 0-1.291-.197c-.33 0-.64.044-.928.134a2.134 2.134 0 0 0-.748.385 1.808 1.808 0 0 0-.504.645 2.03 2.03 0 0 0-.181.881c0 .342.064.625.189.851.132.226.321.43.567.613.252.184.561.384.928.598.468.274.88.546 1.236.819.356.268.635.58.834.936.199.352.3.795.3 1.33 0 .577-.103 1.083-.308 1.519-.199.43-.485.79-.857 1.078a3.992 3.992 0 0 1-1.323.645 6.249 6.249 0 0 1-1.684.213Zm8.027 0c-.571 0-1.049-.137-1.432-.409-.378-.279-.566-.753-.566-1.425a4.956 4.956 0 0 1 .133-1.125l1.015-4.824h-1.329l.125-.605L493.9 137l.944-1.826h.779l-.433 1.984h2.219l-.205.999h-2.21l-1.024 4.84a9.55 9.55 0 0 0-.102.472 3.02 3.02 0 0 0-.039.48c0 .262.068.482.204.661.137.173.365.259.685.259.2 0 .388-.018.567-.054.183-.037.377-.09.582-.158v1.007a2.816 2.816 0 0 1-.599.181 3.147 3.147 0 0 1-.747.095Zm5.524 0c-.466 0-.875-.113-1.227-.338-.351-.226-.624-.559-.819-1-.194-.441-.291-.978-.291-1.613s.066-1.246.197-1.834a7.636 7.636 0 0 1 .574-1.636c.247-.504.544-.945.889-1.323a3.948 3.948 0 0 1 1.181-.881 3.213 3.213 0 0 1 1.409-.315c.388 0 .724.073 1.007.221.288.147.527.34.716.582.194.237.346.488.456.756h.079l.504-1.401h.999l-1.826 8.625h-1.046l.236-1.669h-.063a6.435 6.435 0 0 1-.811.89 4.11 4.11 0 0 1-.999.676c-.362.173-.75.26-1.165.26Zm.425-1.086c.404 0 .803-.147 1.197-.44.398-.3.754-.702 1.07-1.205.319-.508.564-1.08.731-1.715a6.274 6.274 0 0 0 .213-1.582c0-.54-.144-.975-.433-1.307-.283-.335-.672-.503-1.164-.503-.352 0-.682.09-.992.268-.31.173-.59.417-.842.731-.247.31-.459.672-.637 1.086-.178.41-.318.856-.417 1.338a7.77 7.77 0 0 0-.142 1.487c0 .604.123 1.063.37 1.377.246.31.595.465 1.046.465Zm5.116 4.808c-.257 0-.465-.016-.623-.047a4.383 4.383 0 0 1-.471-.119v-1.061c.141.036.299.068.471.094.174.032.358.047.552.047.43 0 .799-.136 1.109-.409.31-.273.611-.674.905-1.204l.606-1.078-1.322-8.727h1.322l.598 4.43c.053.346.095.719.126 1.117.031.394.055.769.071 1.126.016.352.023.637.023.857H509c.074-.172.184-.421.331-.747.147-.331.304-.674.473-1.031.167-.356.317-.655.448-.897l2.589-4.855h1.401l-5.524 10.12a7.693 7.693 0 0 1-.874 1.314 3.006 3.006 0 0 1-.983.802c-.363.179-.787.268-1.275.268Zm14.982-3.722c-.572 0-1.049-.137-1.432-.409-.377-.279-.566-.753-.566-1.425a5.161 5.161 0 0 1 .133-1.125l1.016-4.824h-1.331l.126-.605 1.433-.552.944-1.826h.78l-.434 1.984h2.22l-.205.999h-2.212l-1.022 4.84a7.7 7.7 0 0 0-.102.472c-.027.168-.04.328-.04.48 0 .262.068.482.204.661.137.173.365.259.685.259.199 0 .388-.018.567-.054.184-.037.377-.09.582-.158v1.007c-.131.063-.33.124-.598.181a3.149 3.149 0 0 1-.748.095Zm5.454 0c-.435 0-.816-.081-1.142-.244a1.738 1.738 0 0 1-.754-.716c-.174-.32-.26-.711-.26-1.173 0-.231.015-.454.046-.668.037-.221.077-.449.119-.685l1.141-5.296h1.322l-1.172 5.445c-.042.226-.076.428-.103.606a3.908 3.908 0 0 0-.032.465c0 .372.095.663.284.873.194.205.501.307.921.307.393 0 .805-.134 1.235-.401.435-.268.837-.688 1.205-1.26.372-.576.655-1.324.849-2.242l.802-3.793h1.292l-1.826 8.625h-1.078l.212-1.669h-.071c-.199.273-.44.551-.724.834a4.038 4.038 0 0 1-.983.708c-.373.189-.8.284-1.283.284Zm6.642-.157 1.849-8.665h1.156l-.204 1.661h.015c.2-.273.439-.549.717-.826.284-.284.611-.52.984-.709a2.766 2.766 0 0 1 1.282-.291c.462 0 .858.086 1.189.26.33.168.585.415.763.74.178.319.267.708.267 1.165 0 .24-.018.485-.055.731-.037.246-.076.467-.117.661l-1.15 5.273h-1.392l1.164-5.446c.047-.236.084-.438.111-.606.031-.168.046-.325.046-.472 0-.367-.099-.646-.299-.834-.199-.189-.493-.283-.881-.283-.383 0-.787.13-1.212.393-.425.262-.819.677-1.18 1.243-.362.562-.643 1.296-.842 2.204l-.811 3.801h-1.4Zm12.795.157c-.646 0-1.201-.129-1.668-.386a2.678 2.678 0 0 1-1.079-1.117c-.246-.488-.37-1.07-.37-1.747 0-.697.101-1.382.299-2.054a6.512 6.512 0 0 1 .874-1.834c.378-.55.832-.988 1.361-1.314a3.393 3.393 0 0 1 1.794-.488c.793 0 1.394.179 1.803.535.409.352.614.838.614 1.456 0 .435-.103.837-.307 1.205-.2.367-.51.686-.929.959-.414.268-.941.478-1.582.63-.634.147-1.387.22-2.258.22h-.299c-.011.095-.021.2-.031.315a7.551 7.551 0 0 0-.008.323c0 .693.167 1.235.503 1.629.336.388.84.582 1.511.582.415 0 .805-.058 1.172-.173a9.261 9.261 0 0 0 1.165-.473v1.126a8.562 8.562 0 0 1-1.172.44c-.394.111-.858.166-1.393.166Zm-1.558-5.005h.189c.672 0 1.288-.057 1.849-.173.561-.121 1.013-.315 1.354-.583.341-.272.511-.634.511-1.086a.95.95 0 0 0-.299-.723c-.2-.189-.503-.284-.913-.284-.362 0-.718.113-1.07.339-.351.22-.672.543-.96.967-.283.426-.504.94-.661 1.543Zm8.798 5.005c-.473 0-.885-.11-1.236-.33-.352-.221-.624-.549-.818-.984-.194-.441-.291-.987-.291-1.637 0-.62.063-1.219.189-1.802a7.544 7.544 0 0 1 .542-1.637c.242-.503.536-.945.881-1.322a3.806 3.806 0 0 1 1.181-.89 3.34 3.34 0 0 1 1.464-.322c.404 0 .75.074 1.039.22.288.147.527.339.716.575.194.231.346.48.456.748h.079a39.101 39.101 0 0 1 .205-1.401c.046-.236.099-.48.156-.732l.607-2.888h1.298l-2.597 12.245h-1.078l.213-1.669h-.055a7.557 7.557 0 0 1-.827.905 3.785 3.785 0 0 1-.967.67 2.663 2.663 0 0 1-1.157.251Zm.44-1.086c.247 0 .496-.06.748-.181.257-.121.506-.291.748-.512.24-.225.466-.49.676-.794.21-.305.394-.64.551-1.007a5.947 5.947 0 0 0 .511-2.432c0-.556-.133-.999-.401-1.33-.267-.331-.695-.496-1.283-.496-.362 0-.697.092-1.007.276a3.03 3.03 0 0 0-.826.755c-.247.32-.456.69-.63 1.11a7.373 7.373 0 0 0-.526 2.769c0 .604.12 1.063.361 1.377.241.31.601.465 1.078.465Zm6.996-2.266 1.503-8.311h1.59l-2.031 8.311h-1.062Zm-.094 3.415c-.257 0-.457-.074-.598-.22-.137-.142-.205-.342-.205-.599 0-.319.089-.606.267-.857.184-.252.473-.378.866-.378.231 0 .415.071.551.212.142.142.213.344.213.606 0 .294-.09.575-.268.843-.178.262-.454.393-.826.393Z" fill="#333"/><path d="M62.674 106.387a4.477 4.477 0 0 1 4.477-4.477h44.768a4.477 4.477 0 0 1 4.476 4.477v270.395h-53.72V106.387Zm80.582-47.453a4.477 4.477 0 0 1 4.477-4.477H192.5a4.477 4.477 0 0 1 4.477 4.477v317.848h-53.721V58.934Zm80.581 189.814a4.478 4.478 0 0 1 4.477-4.477h44.767a4.478 4.478 0 0 1 4.477 4.477v128.035h-53.721V248.748Zm80.582 0a4.478 4.478 0 0 1 4.477-4.477h44.767a4.478 4.478 0 0 1 4.477 4.477v128.035h-53.721V248.748ZM385 211.143a4.478 4.478 0 0 1 4.477-4.477h44.767a4.478 4.478 0 0 1 4.477 4.477v165.64H385v-165.64Zm80.581 74.314a4.478 4.478 0 0 1 4.477-4.477h44.767a4.478 4.478 0 0 1 4.477 4.477v91.326h-53.721v-91.326Zm80.581-38.5a4.478 4.478 0 0 1 4.477-4.477h44.767a4.477 4.477 0 0 1 4.477 4.477v129.826h-53.721V246.957Z" fill="#F8FAFF"/><path d="M53.72 115.341a4.477 4.477 0 0 1 4.478-4.477h44.767a4.478 4.478 0 0 1 4.477 4.477v261.442H53.721V115.341Zm80.582-47.454a4.477 4.477 0 0 1 4.477-4.477h44.768a4.476 4.476 0 0 1 4.476 4.477v308.896h-53.721V67.887Zm80.582 188.023a4.476 4.476 0 0 1 4.477-4.476h44.767a4.477 4.477 0 0 1 4.477 4.476v120.872h-53.721V255.91Zm80.581 0a4.477 4.477 0 0 1 4.477-4.476h44.767a4.477 4.477 0 0 1 4.477 4.476v120.872h-53.721V255.91Zm80.581-35.813a4.478 4.478 0 0 1 4.477-4.477h44.768a4.477 4.477 0 0 1 4.476 4.477v156.686h-53.721V220.097Zm80.582 71.627a4.477 4.477 0 0 1 4.477-4.476h44.767a4.477 4.477 0 0 1 4.477 4.476v85.058h-53.721v-85.058Zm80.582-35.814a4.476 4.476 0 0 1 4.476-4.476h44.768a4.477 4.477 0 0 1 4.477 4.476v120.872H537.21V255.91Z" fill="#EAEFFF"/><path d="M27.198 343.562c.743 0 1.332.214 1.769.642.44.424.66 1 .66 1.726 0 .657-.148 1.235-.446 1.732a2.79 2.79 0 0 1-1.248 1.12c-.535.245-1.163.368-1.886.368-.787 0-1.46-.162-2.02-.484v-1.004c.67.416 1.351.624 2.045.624.78 0 1.387-.196 1.824-.587.436-.392.655-.939.655-1.64 0-.515-.151-.921-.453-1.219-.298-.302-.714-.453-1.249-.453a4.13 4.13 0 0 0-.594.043c-.2.025-.483.086-.85.184l-.453-.349 1.205-4.186h4.089l-.202.936H26.85l-.777 2.687a4.38 4.38 0 0 1 1.126-.14Zm-6.965-46.465H19.18l1.2-5.588c.24-1.066.42-1.798.538-2.197a4.738 4.738 0 0 1-.85.678l-1.09.674-.49-.778 2.749-1.737h.912l-1.916 8.948Zm9.988-6.207c0 1.204-.16 2.304-.483 3.299-.318.996-.755 1.751-1.31 2.265-.55.51-1.191.765-1.922.765-.718 0-1.269-.259-1.652-.777-.384-.523-.575-1.278-.575-2.265 0-1.101.167-2.15.501-3.145.335-1.001.776-1.754 1.322-2.259.551-.511 1.18-.765 1.886-.765 1.489 0 2.233.961 2.233 2.882Zm-2.295-2.001c-.46 0-.887.236-1.279.71-.392.469-.71 1.128-.955 1.977a9.39 9.39 0 0 0-.36 2.589c0 .701.101 1.24.305 1.615.204.377.533.564.986.564.469 0 .895-.233 1.279-.698.383-.465.69-1.134.918-2.007a10.74 10.74 0 0 0 .349-2.773c0-1.318-.414-1.977-1.243-1.977Zm-7.693-43.723H19.18l1.2-5.588c.24-1.065.42-1.797.538-2.197a4.694 4.694 0 0 1-.85.679l-1.09.673-.49-.777 2.749-1.738h.912l-1.916 8.948Zm6.965-5.465c.743 0 1.332.214 1.769.642.44.424.66 1 .66 1.726 0 .657-.148 1.235-.446 1.733a2.795 2.795 0 0 1-1.248 1.12c-.535.244-1.163.367-1.886.367-.787 0-1.46-.161-2.02-.484v-1.003c.67.415 1.351.624 2.045.624.78 0 1.387-.196 1.824-.588.436-.392.655-.939.655-1.64 0-.515-.151-.92-.453-1.218-.298-.302-.714-.453-1.249-.453a4.13 4.13 0 0 0-.594.043 6.8 6.8 0 0 0-.85.183l-.453-.348 1.205-4.187h4.089l-.202.937H26.85l-.777 2.687a4.38 4.38 0 0 1 1.126-.141Zm-4.988-46.465h-5.503l.19-.9 2.846-2.57c.416-.38.775-.712 1.077-.998.306-.29.557-.561.753-.814.2-.257.347-.51.44-.759.099-.253.148-.533.148-.839 0-.404-.123-.723-.367-.961-.245-.236-.578-.354-.998-.354a2.52 2.52 0 0 0-.924.177c-.298.115-.629.31-.992.588l-.502-.704c.78-.629 1.622-.943 2.528-.943.718 0 1.285.182 1.702.545.42.359.63.854.63 1.487 0 .453-.082.87-.245 1.249-.159.379-.426.781-.802 1.206-.371.424-.97.997-1.8 1.72l-2.154 1.879v.048h4.15l-.177.943Zm8.011-6.207c0 1.205-.16 2.304-.483 3.3-.318.995-.755 1.75-1.31 2.264a2.736 2.736 0 0 1-1.922.766c-.718 0-1.269-.26-1.652-.777-.384-.523-.575-1.278-.575-2.266 0-1.101.167-2.149.501-3.145.335-1 .776-1.753 1.322-2.259.551-.51 1.18-.765 1.886-.765 1.489 0 2.233.961 2.233 2.882Zm-2.295-2.001c-.46 0-.887.237-1.279.71-.392.47-.71 1.129-.955 1.977a9.403 9.403 0 0 0-.36 2.59c0 .701.101 1.24.305 1.615.204.376.533.563.986.563.469 0 .895-.233 1.279-.697.383-.466.69-1.135.918-2.008a10.74 10.74 0 0 0 .349-2.773c0-1.318-.414-1.977-1.243-1.977Zm-5.716-43.722h-5.503l.19-.9 2.846-2.571c.416-.379.775-.711 1.077-.997.306-.29.557-.561.753-.814.2-.258.347-.51.44-.759a2.31 2.31 0 0 0 .148-.839c0-.404-.123-.724-.367-.961-.245-.236-.578-.354-.998-.354a2.52 2.52 0 0 0-.924.177c-.298.114-.629.31-.992.587l-.502-.704c.78-.628 1.622-.942 2.528-.942.718 0 1.285.181 1.702.545.42.359.63.854.63 1.487 0 .453-.082.869-.245 1.248-.159.38-.426.782-.802 1.206-.371.425-.97.998-1.8 1.72l-2.154 1.88v.048h4.15l-.177.943Zm4.988-5.466c.743 0 1.332.214 1.769.642.44.425.66 1.001.66 1.727 0 .657-.148 1.234-.446 1.732a2.795 2.795 0 0 1-1.248 1.12c-.535.245-1.163.367-1.886.367-.787 0-1.46-.161-2.02-.483v-1.004c.67.416 1.351.624 2.045.624.78 0 1.387-.196 1.824-.587.436-.392.655-.939.655-1.64 0-.515-.151-.921-.453-1.219-.298-.302-.714-.453-1.249-.453a4.13 4.13 0 0 0-.594.043c-.2.025-.483.086-.85.184l-.453-.349 1.205-4.186h4.089l-.202.936h-3.195l-.777 2.687a4.38 4.38 0 0 1 1.126-.141Zm-6.904-51.93c.743 0 1.332.214 1.769.643.44.424.66 1 .66 1.726 0 .657-.148 1.234-.446 1.732a2.796 2.796 0 0 1-1.249 1.12c-.534.245-1.162.367-1.885.367-.787 0-1.46-.161-2.02-.484v-1.003c.67.416 1.351.624 2.045.624.78 0 1.387-.196 1.824-.588.436-.391.655-.938.655-1.64 0-.514-.151-.92-.453-1.218-.298-.302-.714-.453-1.249-.453-.196 0-.394.014-.594.043-.2.025-.483.086-.85.184l-.453-.35 1.206-4.186h4.088l-.202.937h-3.195l-.777 2.687a4.38 4.38 0 0 1 1.126-.141Zm9.927-.74c0 1.203-.16 2.303-.483 3.298-.318.996-.755 1.75-1.31 2.265-.55.51-1.191.765-1.922.765-.718 0-1.269-.26-1.652-.777-.384-.523-.575-1.278-.575-2.265 0-1.102.167-2.15.501-3.146.335-1 .776-1.752 1.322-2.258.551-.51 1.18-.765 1.886-.765 1.489 0 2.233.96 2.233 2.882Zm-2.295-2.002c-.46 0-.887.237-1.279.71-.392.47-.71 1.128-.955 1.977a9.397 9.397 0 0 0-.36 2.589c0 .702.101 1.24.305 1.616.204.375.533.563.986.563.469 0 .895-.233 1.279-.698.383-.465.69-1.134.918-2.007.232-.874.349-1.798.349-2.773 0-1.318-.414-1.977-1.243-1.977Z" fill="#fff"/></g><defs><linearGradient id="b" x1="661.785" y1="43.755" x2="346.776" y2="570.833" gradientUnits="userSpaceOnUse"><stop stop-color="#35D5A5"/><stop offset=".321" stop-color="#00C7C5"/><stop offset=".578" stop-color="#2D9BE0"/><stop offset=".722" stop-color="#5277F7"/><stop offset=".801" stop-color="#5B75F6"/><stop offset=".929" stop-color="#7370F4"/><stop offset="1" stop-color="#836DF3"/></linearGradient><linearGradient id="c" x1="450.161" y1="75.701" x2="348.617" y2="166.439" gradientUnits="userSpaceOnUse"><stop stop-color="#FC9F47"/><stop offset=".649" stop-color="#D73777"/><stop offset="1" stop-color="#8F44B2"/></linearGradient><linearGradient id="d" x1="463.491" y1="93.101" x2="401.163" y2="178.529" gradientUnits="userSpaceOnUse"><stop stop-color="#FC9F47"/><stop offset=".649" stop-color="#D73777"/><stop offset="1" stop-color="#8F44B2"/></linearGradient><linearGradient id="e" x1="393.142" y1="93.479" x2="383.055" y2="114.084" gradientUnits="userSpaceOnUse"><stop stop-color="#FC9F47"/><stop offset=".649" stop-color="#D73777"/><stop offset="1" stop-color="#8F44B2"/></linearGradient><linearGradient id="f" x1="393.142" y1="110.263" x2="383.055" y2="130.868" gradientUnits="userSpaceOnUse"><stop stop-color="#FC9F47"/><stop offset=".649" stop-color="#D73777"/><stop offset="1" stop-color="#8F44B2"/></linearGradient><linearGradient id="g" x1="393.142" y1="127.046" x2="383.055" y2="147.651" gradientUnits="userSpaceOnUse"><stop stop-color="#FC9F47"/><stop offset=".649" stop-color="#D73777"/><stop offset="1" stop-color="#8F44B2"/></linearGradient><linearGradient id="h" x1="431.676" y1="80.578" x2="428.484" y2="83.838" gradientUnits="userSpaceOnUse"><stop stop-color="#FC9F47"/><stop offset=".649" stop-color="#D73777"/><stop offset="1" stop-color="#8F44B2"/></linearGradient><linearGradient id="i" x1="424.962" y1="80.578" x2="421.77" y2="83.838" gradientUnits="userSpaceOnUse"><stop stop-color="#FC9F47"/><stop offset=".649" stop-color="#D73777"/><stop offset="1" stop-color="#8F44B2"/></linearGradient><linearGradient id="j" x1="431.676" y1="87.292" x2="428.484" y2="90.552" gradientUnits="userSpaceOnUse"><stop stop-color="#FC9F47"/><stop offset=".649" stop-color="#D73777"/><stop offset="1" stop-color="#8F44B2"/></linearGradient><clipPath id="a"><path fill="#fff" d="M0 0h616v376.942H0z"/></clipPath></defs></svg>