<svg width="191" height="186" fill="none" xmlns="http://www.w3.org/2000/svg"><rect x="14.5" y="15" width="162" height="156" rx="78" fill="#F8FAFF"/><path d="M134.21 118.968h-1.291v-10.162a3.058 3.058 0 0 0-.471-1.613 3.61 3.61 0 0 0-1.293-1.222l2.797-3.261c.143-.168.231-.368.252-.576a1.002 1.002 0 0 0-.131-.607 1.198 1.198 0 0 0-.475-.455 1.435 1.435 0 0 0-.679-.169 2.78 2.78 0 0 1-1.824-.661c-.484-.424-.756-.998-.756-1.597v-3.387c0-1.83-.463-3.637-1.355-5.292-.893-1.655-2.192-3.117-3.807-4.281V59.129c0-.3-.136-.587-.378-.798a1.387 1.387 0 0 0-.912-.331H56.79c-.342 0-.67.119-.912.33a1.062 1.062 0 0 0-.378.799v42.903c0 .3.136.587.378.799.242.211.57.33.912.33h32.918l8.645 9.726c.157.175.37.307.612.378.87.253 1.627.74 2.163 1.391.536.652.824 1.434.824 2.237v2.075h-3.871c-.343 0-.67.119-.913.33a1.064 1.064 0 0 0-.378.799v6.774c0 .299.136.587.378.798.242.212.57.331.913.331h36.129c.342 0 .67-.119.912-.331.242-.211.378-.499.378-.798v-6.774c0-.3-.136-.587-.378-.799a1.392 1.392 0 0 0-.912-.33Zm-6.452-23.71v3.387c0 .855.278 1.693.801 2.415.523.723 1.269 1.301 2.153 1.667l-2.309 2.692h-7.097v-1.427c1.195-.726 2.17-1.695 2.844-2.822a7.108 7.108 0 0 0 1.027-3.654v-5.645c0-.3-.136-.587-.378-.798a1.387 1.387 0 0 0-.912-.331 5.512 5.512 0 0 1-1.891-.327 5 5 0 0 1-1.602-.939l-.756-.661a1.389 1.389 0 0 0-.912-.331h-1.972a11.729 11.729 0 0 0-5.593 1.381c-1.68.909-3.035 2.211-3.913 3.76a1.02 1.02 0 0 0-.135.504v3.387a7.118 7.118 0 0 0 1.027 3.654c.674 1.127 1.65 2.096 2.844 2.822v1.427h-7.078l-2.243-2.749c.858-.371 1.582-.944 2.089-1.655a4.099 4.099 0 0 0 .78-2.37v-3.387c0-2.695 1.224-5.28 3.402-7.185 2.177-1.906 5.131-2.976 8.211-2.976s6.034 1.07 8.212 2.976 3.401 4.49 3.401 7.185Zm-11.613 7.903c-1.71-.002-3.35-.597-4.56-1.655-1.209-1.058-1.889-2.493-1.891-3.99v-3.11c.688-1.112 1.709-2.04 2.952-2.685a8.888 8.888 0 0 1 4.108-.98h1.438l.378.332c1.092.961 2.5 1.601 4.027 1.831v4.612c-.002 1.497-.683 2.932-1.892 3.99-1.21 1.058-2.849 1.653-4.56 1.655Zm-2.58 1.92c1.683.444 3.478.444 5.161 0v1.467c0 .599-.272 1.174-.756 1.597-.484.424-1.14.661-1.825.661-.684 0-1.341-.237-1.825-.661-.484-.423-.755-.998-.755-1.597v-1.467ZM58.081 60.258h64.516V84.21a15.869 15.869 0 0 0-7.002-1.362c-2.429.079-4.794.703-6.867 1.813-2.074 1.11-3.786 2.667-4.973 4.523-1.187 1.856-1.808 3.948-1.803 6.075v3.387a2.083 2.083 0 0 1-.51 1.334c-.328.386-.788.67-1.314.811l-2.287-2.803c-.014-.018-.036-.026-.052-.043l.01-.007-4.47-4.886c-.618-.68-1.475-1.164-2.438-1.377a5.145 5.145 0 0 0-2.894.197l-3.76-4.277c3.365-1.826 5.795-4.72 6.78-8.076.987-3.356.453-6.915-1.488-9.936-1.942-3.02-5.141-5.267-8.931-6.273-3.79-1.006-7.877-.692-11.41.877-3.53 1.568-6.234 4.268-7.544 7.539-1.31 3.27-1.127 6.856.513 10.01 1.64 3.155 4.607 5.634 8.285 6.919a17.407 17.407 0 0 0 11.453-.02l4.104 4.67a3.678 3.678 0 0 0-.819 2.152 3.62 3.62 0 0 0 .65 2.196l2.23 3.251H58.08V60.258Zm30.451 33.92c.415-.283.94-.412 1.461-.358.522.053 1 .285 1.328.643l3.547 3.878-4.08 2.146-2.745-3.998a1.604 1.604 0 0 1-.285-.934c0-.266.07-.529.204-.768a1.82 1.82 0 0 1 .57-.61Zm-8.278-7.418a14.564 14.564 0 0 1-6.42.412c-2.145-.343-4.154-1.16-5.838-2.371l8.683-7.608h12.304c-.207 1.769-.887 3.469-1.986 4.963-1.098 1.495-2.584 2.742-4.337 3.64l-4.203-4.775-2.043 1.377 3.84 4.362Zm-2.819-21.928c2.96.264 5.725 1.413 7.83 3.253 2.103 1.841 3.416 4.26 3.718 6.85H77.436V64.833Zm-2.58 10.765-8.694 7.608c-1.478-1.58-2.44-3.48-2.78-5.498a9.99 9.99 0 0 1 .841-5.966c.893-1.885 2.353-3.524 4.225-4.74 1.873-1.217 4.087-1.967 6.408-2.17v10.766Zm25.308 35.648-7.912-8.9 4.182-2.195 5.759 7.054c.119.147.277.266.459.348.183.083.385.125.591.125h7.925c.282.969.924 1.827 1.826 2.44.901.614 2.01.946 3.152.946 1.142 0 2.251-.332 3.153-.946.901-.613 1.544-1.471 1.825-2.44h7.925c.343 0 .671.119.913.331.242.212.378.499.378.798v10.162h-25.807v-2.075c.002-1.216-.414-2.404-1.193-3.411-.779-1.007-1.885-1.786-3.176-2.237Zm32.756 14.497H99.371v-4.516h33.548v4.516Z" fill="#273B98"/><path d="M56.79 128h36.13c.342 0 .67-.119.912-.331.242-.211.378-.499.378-.798v-3.387a8.11 8.11 0 0 0-1.095-4.035c-.718-1.253-1.76-2.341-3.043-3.18.865-1.005 1.393-2.203 1.525-3.456a6.052 6.052 0 0 0-.782-3.642c-.642-1.127-1.63-2.075-2.855-2.737a8.577 8.577 0 0 0-4.073-1.014c-1.439 0-2.85.351-4.073 1.014-1.224.662-2.212 1.61-2.855 2.737a6.052 6.052 0 0 0-.782 3.642c.132 1.253.66 2.451 1.526 3.456a9.57 9.57 0 0 0-2.848 2.852 9.57 9.57 0 0 0-2.848-2.852c.866-1.005 1.394-2.203 1.525-3.456a6.053 6.053 0 0 0-.781-3.642c-.643-1.127-1.631-2.075-2.855-2.737a8.577 8.577 0 0 0-4.073-1.014c-1.44 0-2.85.351-4.074 1.014-1.224.662-2.212 1.61-2.854 2.737a6.053 6.053 0 0 0-.782 3.642c.131 1.253.66 2.451 1.525 3.456-1.283.839-2.325 1.927-3.044 3.18a8.11 8.11 0 0 0-1.094 4.035v3.387c0 .299.136.587.378.798.242.212.57.331.912.331Zm21.936-15.806a4.067 4.067 0 0 1 .575-2.101 4.76 4.76 0 0 1 1.624-1.626 5.612 5.612 0 0 1 2.302-.781 5.872 5.872 0 0 1 2.453.244 5.25 5.25 0 0 1 2.043 1.213 4.374 4.374 0 0 1 1.165 1.905c.206.708.214 1.449.02 2.16a4.339 4.339 0 0 1-1.127 1.921 11.62 11.62 0 0 0-7.788 0c-.812-.813-1.262-1.855-1.267-2.935Zm5.161 4.516c2.053.002 4.02.716 5.472 1.986 1.452 1.27 2.268 2.992 2.27 4.788v2.258H76.145v-2.258c.002-1.796.819-3.518 2.27-4.788 1.451-1.27 3.42-1.984 5.472-1.986Zm-23.226-4.516a4.066 4.066 0 0 1 .576-2.101 4.76 4.76 0 0 1 1.624-1.626 5.613 5.613 0 0 1 2.302-.781 5.872 5.872 0 0 1 2.453.244 5.25 5.25 0 0 1 2.042 1.213 4.373 4.373 0 0 1 1.165 1.905c.207.708.214 1.449.021 2.16-.192.71-.58 1.37-1.127 1.921a11.62 11.62 0 0 0-7.789 0c-.812-.813-1.262-1.855-1.267-2.935Zm-2.58 11.29c0-1.797.815-3.52 2.267-4.79 1.452-1.271 3.421-1.984 5.475-1.984 2.053 0 4.022.713 5.474 1.984 1.452 1.27 2.267 2.993 2.267 4.79v2.258H58.081v-2.258Zm49.935-58.71H84.79v2.258h23.226v-2.258Zm0 4.516H84.79v2.258h23.226V69.29Zm0 4.516H84.79v2.258h23.226v-2.257Zm0 4.517H84.79v2.258h23.226v-2.258Z" fill="#273B98"/><rect x="14.5" y="15" width="162" height="156" rx="78" stroke="#EAEFFF" stroke-opacity=".21" stroke-width="29"/></svg>