<svg width="192" height="186" fill="none" xmlns="http://www.w3.org/2000/svg"><rect x="15" y="15" width="162" height="156" rx="78" fill="#F8FAFF"/><path d="M92.802 77.75a1.286 1.286 0 0 0-1.597.073l-9.857 8.798c-.323.279-.46.698-.358 1.097.102.398.428.714.852.826.424.112.88.002 1.192-.288l9.093-8.116 9.426 6.909a1.29 1.29 0 0 0 1.501.004l13.299-9.616-.476 5.756c-.051.624.45 1.169 1.121 1.217a1.2 1.2 0 0 0 .094.004c.636-.001 1.165-.457 1.213-1.047l.688-8.318a1.08 1.08 0 0 0-.292-.826 1.248 1.248 0 0 0-.835-.391l-9.628-.64c-.668-.041-1.246.428-1.294 1.05-.048.621.453 1.162 1.12 1.21l6.47.43-12.222 8.838-9.51-6.97Zm41.98 47.984h-2.654V92.507a1.064 1.064 0 0 0-.365-.784 1.232 1.232 0 0 0-.858-.302h-10.997a1.183 1.183 0 0 0-.838.308 1.023 1.023 0 0 0-.336.778v33.227h-6.61V98.781c0-.626-.538-1.21-1.211-1.21H99.917c-.672 0-1.187.584-1.187 1.21v26.953h-6.61v-15.268a1.037 1.037 0 0 0-.35-.778 1.2 1.2 0 0 0-.848-.301H79.925a1.2 1.2 0 0 0-.847.301 1.037 1.037 0 0 0-.352.778v15.268H57.218c-.673 0-1.218.507-1.218 1.133 0 .625.545 1.133 1.218 1.133h77.564c.673 0 1.218-.508 1.218-1.133 0-.626-.545-1.133-1.218-1.133Zm-33.617-25.896h8.524v25.896h-8.524V99.838Zm-20.004 25.896v-14.081h8.524v14.081H81.16Zm40.009 0V93.687h8.523v32.047h-8.523Zm-36.5-54.229v-1.779c0-3.039-2.648-5.503-5.915-5.503-3.266 0-5.914 2.464-5.914 5.503v1.779c0 3.039 2.648 5.503 5.914 5.503 3.267 0 5.915-2.464 5.915-5.503Zm-9.394 0v-1.779a3.168 3.168 0 0 1 1.02-2.337 3.668 3.668 0 0 1 2.5-.975h-.06a3.643 3.643 0 0 1 2.491.977 3.151 3.151 0 0 1 1.007 2.335v1.779c0 1.826-1.515 3.313-3.479 3.313-1.963 0-3.478-1.487-3.478-3.313Z" fill="#273B98"/><path d="m69.718 100.161.043.035a3.95 3.95 0 0 0 1.603-.336l.643 20.145c.057 1.503 1.063 2.833 2.563 3.389 1.502.557 3.214.235 4.366-.819 1.151 1.057 2.866 1.381 4.368.824 1.502-.557 2.508-1.889 2.562-3.392l.642-20.107c.506.22 1.058.333 1.616.333 2.128-.002 3.85-1.607 3.852-3.587v-13.61c.322-3.15-2.146-5.954-5.53-6.278-.207-.02-.412-.065-.618-.065H83.31a1.31 1.31 0 0 0-.833.342l-3.54 3.109-3.398-3.104a1.295 1.295 0 0 0-.85-.347H72.02c-3.422.03-6.177 2.621-6.172 5.805 0 .172.034.365.034.538v13.611a3.358 3.358 0 0 0 1.12 2.5c.721.664 1.7 1.03 2.714 1.014h.001Zm12.072 21.242c-.906-.001-1.64-.683-1.643-1.526V99.793c0-.626-.545-1.133-1.218-1.133-.672 0-1.217.508-1.217 1.133v20.084c.001.834-.719 1.514-1.615 1.526-.896.01-1.635-.651-1.658-1.485l-.742-23.317h10.479l-.746 23.31c-.028.826-.751 1.485-1.64 1.492ZM68.318 96.647V82.982c0-.038-.011-.076-.015-.114a3.39 3.39 0 0 1-.025-.351 3.424 3.424 0 0 1 1.096-2.501 3.892 3.892 0 0 1 2.646-1.057h2.176l3.88 3.546c.007.007.016.03.024.037.016.015.033.037.05.05l.043.037c.018.012.037.027.055.038l.047.029.055.03a.942.942 0 0 0 .107.048l.055.02.055.017a1.705 1.705 0 0 0 .172.036.861.861 0 0 0 .175.013h.057l.06-.004a1.352 1.352 0 0 0 .283-.056l.058-.02a2.652 2.652 0 0 0 .107-.045l.052-.026.053-.03a1.089 1.089 0 0 0 .098-.067l.048-.037c.009-.007.017-.05.026-.057l4.037-3.56h2.034c.126 0 .253.041.378.053 2.06.205 3.554 1.92 3.345 3.838-.004.038-.01.093-.01.132v13.664c0 .715-.623 1.295-1.391 1.295-.769 0-1.392-.58-1.392-1.295V93.67l.015-.468c.002-.072-.015-.142-.015-.21V87.5c0-.626-.545-1.133-1.218-1.133-.672 0-1.217.507-1.217 1.133v6.134l-.074.7H73.625l-.056-1.22c-.002-.05-.032-.075-.032-.122V87.5c0-.626-.545-1.133-1.218-1.133-.672 0-1.217.507-1.217 1.133v9.079a1.22 1.22 0 0 1-.38.929 1.414 1.414 0 0 1-.985.387h-.02a1.412 1.412 0 0 1-.993-.35 1.181 1.181 0 0 1-.406-.898Z" fill="#273B98"/><path d="M89.464 58C82.31 58 76.51 63.395 76.51 70.052c0 6.656 5.8 12.053 12.953 12.053 7.155 0 12.954-5.397 12.954-12.053C102.409 63.4 96.614 58.008 89.464 58Zm0 21.839c-5.809 0-10.518-4.382-10.518-9.787 0-5.405 4.709-9.787 10.517-9.787 5.81 0 10.519 4.382 10.519 9.787-.007 5.403-4.712 9.78-10.518 9.787Z" fill="#273B98"/><path d="M92.713 65.141c.628.225 1.333-.066 1.574-.65.242-.584-.071-1.24-.699-1.465a8.248 8.248 0 0 0-5.99.171c-1.89.805-3.351 2.287-4.052 4.108h-1.34c-.673 0-1.219.507-1.219 1.133s.546 1.133 1.218 1.133h.895c-.007.27.002.54.028.81h-.923c-.672 0-1.218.507-1.218 1.132 0 .626.546 1.133 1.218 1.133h1.555c1.67 3.495 5.991 5.159 9.828 3.785.41-.143.707-.48.776-.882a1.093 1.093 0 0 0-.44-1.063 1.292 1.292 0 0 0-1.211-.17c-2.222.797-4.742.113-6.155-1.67h4.518c.673 0 1.218-.507 1.218-1.133s-.545-1.133-1.218-1.133h-5.499a4.542 4.542 0 0 1-.043-.809h6.412c.673 0 1.218-.507 1.218-1.133s-.545-1.133-1.218-1.133h-5.73c1.29-2.12 4.054-3.042 6.497-2.164Z" fill="#273B98"/><rect x="15" y="15" width="162" height="156" rx="78" stroke="#EAEFFF" stroke-opacity=".21" stroke-width="29"/></svg>