<svg width="192" height="186" fill="none" xmlns="http://www.w3.org/2000/svg"><rect x="15" y="15" width="162" height="156" rx="78" fill="#F8FAFF"/><path d="M118.666 88.916v-18.07h2.613c1.068.003 2.037-.546 2.469-1.4.458-.857.295-1.87-.416-2.582l-7.959-8.016c-.522-.5-1.261-.786-2.036-.787-.774-.001-1.514.282-2.038.782l-7.966 8.02c-.711.714-.874 1.726-.416 2.583.432.854 1.401 1.404 2.469 1.4H108v18.07c-11.157 2.362-18.533 11.645-17.174 21.612 1.36 9.968 11.027 17.472 22.507 17.472 11.479 0 21.146-7.504 22.506-17.472 1.36-9.967-6.016-19.25-17.173-21.612Zm-9.333-20.403h-3.967l-.013-.116 8-8.023 7.959 8.023-.033.116h-3.947c-.736 0-1.333.523-1.333 1.166v18.804a23.906 23.906 0 0 0-5.333 0V69.679c0-.643-.597-1.166-1.333-1.166Zm4 57.129c-11.046 0-20-7.83-20-17.488 0-9.659 8.954-17.489 20-17.489 11.045 0 19.999 7.83 19.999 17.489-.013 9.653-8.959 17.477-19.999 17.488Z" fill="#273B98"/><path d="M73.334 97.083v18.066h-2.613c-1.068-.005-2.037.545-2.47 1.399-.457.857-.294 1.869.417 2.582l7.96 8.016c.505.524 1.25.828 2.034.829.785.001 1.53-.3 2.039-.824l7.96-8.021c.715-.713.88-1.727.422-2.586-.433-.853-1.402-1.4-2.47-1.395h-2.612V97.083c11.156-2.361 18.533-11.644 17.173-21.611C99.814 65.504 90.147 58 78.667 58c-11.479 0-21.146 7.504-22.506 17.472-1.36 9.967 6.016 19.25 17.173 21.611Zm9.333 20.397h3.967l.013.117-8 8.022-7.96-8.022.034-.117h3.947c.736 0 1.333-.522 1.333-1.165V97.511c.884.096 1.775.145 2.666.15a26.14 26.14 0 0 0 2.667-.15v18.804c0 .644.597 1.165 1.333 1.165Zm-4-57.128c11.046 0 20 7.83 20 17.489 0 9.658-8.954 17.488-20 17.488-11.045 0-19.999-7.83-19.999-17.488.013-9.654 8.96-17.478 20-17.489Z" fill="#273B98"/><path d="M73.334 82.504c0-.644-.597-1.166-1.333-1.166s-1.333.522-1.333 1.166c0 2.882 2.889 5.277 6.666 5.742v2.42c0 .643.597 1.165 1.334 1.165.736 0 1.333-.522 1.333-1.166v-2.419c3.777-.466 6.666-2.86 6.666-5.742s-2.89-5.277-6.666-5.742v-6.958c2.293.39 4 1.75 4 3.373 0 .644.596 1.166 1.333 1.166.736 0 1.333-.522 1.333-1.166 0-2.882-2.89-5.277-6.666-5.742v-2.42c0-.643-.598-1.165-1.334-1.165-.736 0-1.333.522-1.333 1.166v2.42c-3.777.465-6.666 2.859-6.666 5.741 0 2.882 2.889 5.277 6.666 5.742v6.958c-2.293-.39-4-1.748-4-3.373Zm10.666 0c0 1.625-1.706 2.982-4 3.373v-6.746c2.294.39 4 1.748 4 3.373Zm-10.666-9.327c0-1.625 1.707-2.982 4-3.373v6.746c-2.293-.39-4-1.748-4-3.373Zm39.999 26.815c2.502.04 4.819 1.162 6.185 2.997.264.357.73.56 1.216.529.485-.031.913-.29 1.115-.677.203-.387.148-.84-.142-1.181-1.858-2.468-4.996-3.966-8.374-4-4.737.162-8.805 2.995-10.044 6.996h-3.29c-.736 0-1.332.522-1.332 1.166 0 .644.596 1.166 1.333 1.166h2.736c-.043.383-.07.771-.07 1.165s.027.783.07 1.166H100c-.737 0-1.334.522-1.334 1.166 0 .644.597 1.166 1.334 1.166h3.289c1.239 4.001 5.307 6.834 10.044 6.995 3.378-.033 6.516-1.532 8.374-3.999.29-.341.345-.794.142-1.181-.202-.387-.63-.646-1.115-.677-.486-.031-.952.172-1.216.529-1.366 1.834-3.683 2.957-6.185 2.997-3.269-.122-6.125-1.967-7.217-4.664h7.217c.736 0 1.333-.522 1.333-1.166 0-.644-.597-1.166-1.333-1.166h-7.909a7.53 7.53 0 0 1 0-2.331h7.909c.736 0 1.333-.522 1.333-1.166 0-.644-.597-1.166-1.333-1.166h-7.217c1.092-2.697 3.948-4.542 7.217-4.664Z" fill="#273B98"/><rect x="15" y="15" width="162" height="156" rx="78" stroke="#EAEFFF" stroke-opacity=".21" stroke-width="29"/></svg>