<svg width="191" height="186" fill="none" xmlns="http://www.w3.org/2000/svg"><rect x="14.5" y="15" width="162" height="156" rx="78" fill="#F8FAFF"/><path d="M121.654 68.5h-12.308v-2.333a.96.96 0 0 0-.165-.521 1.32 1.32 0 0 0-.45-.413l-12.308-7A1.85 1.85 0 0 0 95.5 58H70.885c-.408 0-.8.123-1.088.342-.289.218-.45.515-.45.825V68.5H57.038c-.409 0-.8.123-1.088.342-.289.219-.451.515-.451.825v28h3.077V70.833h10.77v7a.981.981 0 0 0 .307.7l9.23 9.334c.145.144.331.26.544.341.214.081.449.124.687.125h7.693v9.334h3.077v-9.334h16.923c.408 0 .799-.123 1.088-.341.288-.22.45-.516.45-.825V70.833h10.769v26.834h3.077v-28c0-.31-.162-.606-.45-.825a1.818 1.818 0 0 0-1.088-.342ZM78.577 83.667l-6.154-6.219v-15.47l6.154 4.667v17.022Zm-3.985-23.334h20.4l8.2 4.667H80.746l-6.154-4.667ZM106.27 86H81.654V67.333h24.615V86Z" fill="#273B98"/><path d="M74.538 65h3.077v-2.333h3.077v-2.334h-3.077V58H74.54v2.334h-3.08v2.333h3.078V65Zm57.885-4.667V58h-3.077v2.333h-3.077v2.334h3.077V65h3.077v-2.333h3.077v-2.334h-3.077Zm-34.315 58.392-8.185-2.065v-1.528c.953-.537 1.728-1.235 2.262-2.04.535-.804.814-1.692.815-2.592v-1.178c.32.007.634-.067.892-.21.2-.107.364-.248.477-.413a.928.928 0 0 0 .17-.532V107c0-1.857-.973-3.637-2.704-4.95-1.731-1.313-4.08-2.05-6.527-2.05-2.449 0-4.796.737-6.527 2.05-1.732 1.313-2.704 3.093-2.704 4.95v1.167a.928.928 0 0 0 .17.532c.112.165.276.306.476.413.258.143.572.217.892.21v1.178c.003 1.549.816 3.035 2.262 4.13.254.183.526.351.815.502v1.528l-8.184 2.065c-.304.08-.568.23-.755.428a1 1 0 0 0-.291.68v7c0 .31.162.606.45.825.289.219.68.342 1.088.342h24.615c.408 0 .8-.123 1.088-.342.289-.219.45-.515.45-.825v-7a1.006 1.006 0 0 0-.29-.68 1.595 1.595 0 0 0-.755-.428Zm-8.185-8.225c0 .46-.12.915-.351 1.339a3.614 3.614 0 0 1-1 1.136 4.919 4.919 0 0 1-1.498.759c-.56.175-1.16.266-1.766.266a5.943 5.943 0 0 1-1.767-.266 4.919 4.919 0 0 1-1.497-.759 3.614 3.614 0 0 1-1-1.136 2.78 2.78 0 0 1-.352-1.339v-1.878l1.123-.292.862.665a1.83 1.83 0 0 0 1.092.338c.167-.002.333-.022.492-.058l4.124-1.05 1.538.397v1.878Zm-10.738-3.955c.152-1.151.863-2.218 1.994-2.995 1.132-.776 2.603-1.206 4.129-1.206 1.525 0 2.997.43 4.128 1.206 1.131.777 1.842 1.844 1.995 2.995l-2.554-.653a2.001 2.001 0 0 0-.985 0l-3.707.945-.862-.665a1.83 1.83 0 0 0-1.092-.339 2.375 2.375 0 0 0-.492.059l-2.554.653Zm4.584 19.122h-9.23v-4.994l6.123-1.551 3.107 2.356v4.189Zm-.2-7.63a.883.883 0 0 0 .2-.537v-1.283a11.11 11.11 0 0 0 1.539.116 11.11 11.11 0 0 0 1.538-.116v1.283a.883.883 0 0 0 .2.537l-1.738 1.318-1.739-1.318Zm12.508 7.63h-9.23v-4.189l3.107-2.356 6.123 1.551v4.994Z" fill="#273B98"/><path d="m102.146 118.725-8.184-2.065v-1.528c.953-.537 1.728-1.235 2.262-2.04.534-.804.813-1.692.814-2.592v-1.178c.32.007.635-.067.893-.21.2-.107.364-.248.476-.413a.928.928 0 0 0 .17-.532V107c0-1.857-.973-3.637-2.704-4.95-1.73-1.313-4.079-2.05-6.527-2.05-2.448 0-4.796.737-6.527 2.05-1.731 1.313-2.704 3.093-2.704 4.95v1.167a.928.928 0 0 0 .17.532c.113.165.276.306.477.413.258.143.572.217.892.21v1.178c.002 1.549.816 3.035 2.261 4.13.254.183.527.351.816.502v1.528l-8.185 2.065c-.304.08-.567.23-.755.428a1.007 1.007 0 0 0-.291.68v7c0 .31.162.606.45.825.29.219.68.342 1.088.342h24.616c.408 0 .799-.123 1.088-.342.288-.219.45-.515.45-.825v-7a1.005 1.005 0 0 0-.291-.68 1.594 1.594 0 0 0-.755-.428Zm-8.184-8.225c0 .928-.487 1.818-1.352 2.475-.866.656-2.04 1.025-3.264 1.025-1.224 0-2.398-.369-3.263-1.025-.866-.657-1.352-1.547-1.352-2.475v-1.878l1.123-.292.861.665a1.83 1.83 0 0 0 1.093.338 2.38 2.38 0 0 0 .492-.058l4.123-1.05 1.538.397v1.878Zm-10.739-3.955c.153-1.151.863-2.218 1.995-2.995 1.131-.776 2.602-1.206 4.128-1.206 1.526 0 2.997.43 4.129 1.206 1.131.777 1.842 1.844 1.994 2.995l-2.554-.653a2.001 2.001 0 0 0-.984 0l-3.708.945-.861-.665a1.83 1.83 0 0 0-1.093-.339 2.375 2.375 0 0 0-.492.059l-2.554.653Zm4.585 19.122h-9.231v-4.994l6.123-1.551 3.108 2.356v4.189Zm-.2-7.63a.884.884 0 0 0 .2-.537v-1.283a11.11 11.11 0 0 0 1.538.116 11.109 11.109 0 0 0 1.539-.116v1.283a.884.884 0 0 0 .2.537l-1.739 1.318-1.738-1.318Zm12.507 7.63h-9.23v-4.189l3.107-2.356 6.123 1.551v4.994Zm34.339-6.942-8.185-2.065v-1.528c.954-.537 1.728-1.235 2.263-2.04.534-.804.813-1.692.814-2.592v-1.178c.32.007.634-.067.892-.21.201-.107.364-.248.477-.413a.933.933 0 0 0 .17-.532V107c0-1.857-.973-3.637-2.704-4.95-1.731-1.313-4.079-2.05-6.527-2.05-2.448 0-4.796.737-6.527 2.05-1.731 1.313-2.704 3.093-2.704 4.95v1.167a.925.925 0 0 0 .17.532c.112.165.276.306.476.413.258.143.572.217.893.21v1.178c.002 1.549.816 3.035 2.261 4.13.254.183.527.351.815.502v1.528l-8.184 2.065c-.304.08-.568.23-.755.428a1.005 1.005 0 0 0-.291.68v7c0 .31.162.606.45.825.289.219.68.342 1.088.342h24.616c.408 0 .799-.123 1.087-.342.289-.219.451-.515.451-.825v-7a1.005 1.005 0 0 0-.291-.68 1.598 1.598 0 0 0-.755-.428Zm-8.185-8.225c0 .928-.486 1.818-1.352 2.475-.865.656-2.039 1.025-3.263 1.025-1.224 0-2.398-.369-3.264-1.025-.865-.657-1.352-1.547-1.352-2.475v-1.878l1.124-.292.861.665a1.83 1.83 0 0 0 1.092.338c.167-.002.333-.022.493-.058l4.123-1.05 1.538.397v1.878Zm-10.738-3.955c.152-1.151.863-2.218 1.994-2.995 1.132-.776 2.603-1.206 4.129-1.206 1.526 0 2.997.43 4.128 1.206 1.132.777 1.843 1.844 1.995 2.995l-2.554-.653a2.003 2.003 0 0 0-.985 0l-3.707.945-.862-.665a1.83 1.83 0 0 0-1.092-.339 2.364 2.364 0 0 0-.492.059l-2.554.653Zm4.584 19.122h-9.23v-4.994l6.123-1.551 3.107 2.356v4.189Zm-.2-7.63a.878.878 0 0 0 .2-.537v-1.283a11.11 11.11 0 0 0 1.539.116 11.108 11.108 0 0 0 1.538-.116v1.283a.89.89 0 0 0 .2.537l-1.738 1.318-1.739-1.318Zm12.508 7.63h-9.231v-4.189l3.108-2.356 6.123 1.551v4.994Z" fill="#273B98"/><rect x="14.5" y="15" width="162" height="156" rx="78" stroke="#EAEFFF" stroke-opacity=".21" stroke-width="29"/></svg>