<svg width="192" height="186" fill="none" xmlns="http://www.w3.org/2000/svg"><rect x="15" y="15" width="162" height="156" rx="78" fill="#F8FAFF"/><path d="M132.3 89.873c-2.387-2.467-5.56-3.825-8.933-3.825h-1.187c.011-.323.017-.644.017-.961C122.197 70.15 110.445 58 96 58c-11.58 0-21.782 7.885-25.09 19.279a16.34 16.34 0 0 0-4.848 1.38c-.59.271-.857.988-.593 1.6.263.61.956.885 1.547.613a14.073 14.073 0 0 1 4.885-1.257 1.18 1.18 0 0 0 1.05-.897C75.727 67.946 85.206 60.423 96 60.423c13.153 0 23.853 11.064 23.853 24.664 0 .676-.028 1.374-.085 2.072-.027.338.084.672.306.921.221.25.534.392.862.392h2.431c2.748 0 5.332 1.106 7.276 3.115 1.943 2.01 3.013 4.682 3.013 7.523 0 5.867-4.615 10.64-10.289 10.64h-8.333c.036-.491.054-.986.054-1.487 0-8.285-4.964-15.394-11.979-18.315v-5.761l3.042-3.145a4.372 4.372 0 0 0 2.252.625c2.489 0 4.514-2.094 4.514-4.668 0-2.575-2.025-4.669-4.514-4.669-2.49 0-4.515 2.094-4.515 4.669 0 .848.221 1.644.605 2.33l-3.384 3.5a1.23 1.23 0 0 0-.344.856v5.464a18.412 18.412 0 0 0-3.593-.584V76.081c1.923-.536 3.343-2.353 3.343-4.508 0-2.575-2.026-4.669-4.515-4.669-2.49 0-4.515 2.094-4.515 4.669 0 2.155 1.42 3.972 3.343 4.508v12.484a18.419 18.419 0 0 0-3.594.584v-5.464c0-.322-.123-.63-.343-.857l-3.385-3.5a4.76 4.76 0 0 0 .606-2.33c0-2.574-2.025-4.669-4.515-4.669-2.49 0-4.515 2.095-4.515 4.669 0 2.574 2.026 4.668 4.515 4.668.82 0 1.588-.228 2.252-.624l3.041 3.145v5.76c-7.014 2.922-11.978 10.03-11.978 18.316 0 .5.018.996.053 1.487h-4.03c-3.898 0-7.563-1.569-10.319-4.419-2.755-2.85-4.272-6.638-4.272-10.667 0-4.37 1.83-8.52 5.021-11.386a1.24 1.24 0 0 0 .117-1.71 1.145 1.145 0 0 0-1.654-.12C58.124 84.776 56 89.593 56 94.664c0 4.676 1.761 9.073 4.959 12.381 3.199 3.307 7.452 5.129 11.975 5.129h4.355C79.049 121.19 86.769 128 96 128c9.231 0 16.952-6.81 18.711-15.826h8.656c6.966 0 12.633-5.861 12.633-13.064 0-3.488-1.314-6.768-3.7-9.237Zm-23.897-15.12c1.197 0 2.171 1.008 2.171 2.246s-.974 2.245-2.171 2.245c-1.198 0-2.172-1.007-2.172-2.245 0-1.238.974-2.245 2.172-2.245Zm-26.977 2.245c0-1.238.974-2.245 2.171-2.245 1.198 0 2.172 1.007 2.172 2.245 0 1.238-.975 2.245-2.172 2.245s-2.17-1.007-2.17-2.245Zm12.403-5.425c0-1.238.974-2.245 2.171-2.245 1.197 0 2.171 1.007 2.171 2.245 0 1.238-.974 2.245-2.171 2.245-1.197 0-2.171-1.007-2.171-2.245ZM96 125.577c-9.233 0-16.744-7.767-16.744-17.314 0-9.546 7.511-17.313 16.744-17.313s16.744 7.767 16.744 17.314c0 9.546-7.511 17.313-16.744 17.313Z" fill="#273B98"/><path d="M96 93.29c-7.985 0-14.481 6.717-14.481 14.974 0 8.256 6.496 14.973 14.481 14.973 2.882 0 5.667-.874 8.054-2.528a1.237 1.237 0 0 0 .321-1.681 1.148 1.148 0 0 0-1.626-.332 11.807 11.807 0 0 1-6.75 2.118c-6.692 0-12.137-5.63-12.137-12.55 0-6.921 5.445-12.551 12.138-12.551s12.137 5.63 12.137 12.551c0 2.685-.808 5.245-2.337 7.404a1.239 1.239 0 0 0 .253 1.694 1.148 1.148 0 0 0 1.638-.262c1.825-2.577 2.79-5.633 2.79-8.836 0-8.257-6.496-14.975-14.481-14.975Z" fill="#273B98"/><path d="M97.385 118.62c.647 0 1.172-.542 1.172-1.211v-1.859h.017c2.445 0 4.435-2.057 4.435-4.585 0-1.762-.967-3.295-2.381-4.062a3.986 3.986 0 0 0 .541-2.013c0-1.735-1.098-3.208-2.612-3.72v-2.052c0-.669-.525-1.211-1.172-1.211-.647 0-1.172.542-1.172 1.211v1.859h-1.097v-1.859c0-.669-.525-1.211-1.172-1.211-.647 0-1.172.542-1.172 1.211v1.859h-2.2c-.647 0-1.172.543-1.172 1.212 0 .669.525 1.212 1.172 1.212h.862v9.725h-.862c-.647 0-1.172.543-1.172 1.212 0 .669.525 1.212 1.172 1.212h2.2v1.859c0 .669.525 1.211 1.172 1.211.647 0 1.172-.542 1.172-1.211v-1.859h1.097v1.859c0 .669.525 1.211 1.172 1.211Zm1.19-5.494h-4.797v-4.323h4.797c1.152 0 2.09.97 2.09 2.162 0 1.191-.938 2.161-2.09 2.161Zm-1.19-6.747h-3.607v-2.978h3.607c.794 0 1.44.668 1.44 1.489 0 .821-.646 1.489-1.44 1.489Z" fill="#273B98"/><rect x="15" y="15" width="162" height="156" rx="78" stroke="#EAEFFF" stroke-opacity=".21" stroke-width="29"/></svg>