<?xml version="1.0" standalone="no"?>
<!DOCTYPE svg PUBLIC "-//W3C//DTD SVG 20010904//EN"
 "http://www.w3.org/TR/2001/REC-SVG-20010904/DTD/svg10.dtd">
<svg version="1.0" xmlns="http://www.w3.org/2000/svg"
 width="5208.000000pt" height="5208.000000pt" viewBox="0 0 5208.000000 5208.000000"
 preserveAspectRatio="xMidYMid meet">

<g transform="translate(0.000000,5208.000000) scale(0.100000,-0.100000)"
fill="#000000" stroke="none">
<path d="M17248 34842 l-8793 -8791 3070 -3071 c1688 -1688 3072 -3070 3075
-3070 3 0 115 199 250 442 1572 2835 2827 4747 4174 6363 1073 1288 2253 2433
3541 3436 684 533 1453 1069 2200 1534 149 92 290 180 315 196 l44 28 61 -43
c33 -24 787 -545 1675 -1158 888 -613 3399 -2347 5580 -3853 2181 -1506 3972
-2739 3980 -2739 15 -1 2711 2241 2709 2253 0 3 -1164 900 -2587 1993 -1423
1092 -4523 3474 -6890 5292 l-4303 3307 -127 -98 c-565 -434 -1193 -974 -1847
-1587 -399 -375 -1177 -1167 -1640 -1671 -1182 -1285 -2406 -2820 -3506 -4395
-839 -1201 -1541 -2308 -2289 -3610 -568 -989 -909 -1627 -1395 -2613 -132
-268 -242 -487 -245 -487 -3 0 -804 799 -1780 1775 l-1775 1775 7648 7648
7647 7647 7650 -7650 7650 -7650 -1903 -1903 -1903 -1903 -1489 1012 c-2896
1967 -6009 4082 -8378 5691 l-2398 1629 -252 -152 c-3053 -1845 -5452 -4028
-7663 -6974 -763 -1016 -1624 -2302 -2434 -3638 l-84 -138 5602 -5602 5602
-5602 4845 4845 c4560 4560 4844 4846 4827 4861 -9 10 -302 227 -651 483 -466
343 -639 465 -652 461 -14 -5 -126 72 -417 286 -2980 2195 -8217 6050 -8252
6075 l-45 33 -260 -181 c-2884 -2005 -5340 -4234 -7170 -6508 -59 -74 -114
-142 -122 -150 -11 -13 -51 23 -288 260 -151 151 -275 280 -275 287 0 6 59 85
132 175 1544 1910 3442 3735 5773 5548 687 534 2063 1541 2106 1540 24 -1
1774 -1214 6059 -4201 855 -596 1988 -1386 2517 -1754 529 -369 962 -677 963
-685 1 -14 1306 -931 1333 -938 7 -1 1621 1606 3587 3573 l3575 3575 -8792
8792 -8792 8792 -8793 -8792z"/>
</g>
</svg>
