<?xml version="1.0" encoding="UTF-8"?>
<!DOCTYPE svg PUBLIC "-//W3C//DTD SVG 1.1//EN" "http://www.w3.org/Graphics/SVG/1.1/DTD/svg11.dtd">
<svg xmlns="http://www.w3.org/2000/svg" version="1.1" width="5208px" height="5208px" style="shape-rendering:geometricPrecision; text-rendering:geometricPrecision; image-rendering:optimizeQuality; fill-rule:evenodd; clip-rule:evenodd" xmlns:xlink="http://www.w3.org/1999/xlink">
<g><path style="opacity:0.996" fill="#080908" d="M 2602.5,844.5 C 2603.24,844.369 2603.91,844.536 2604.5,845C 3190.5,1431 3776.5,2017 4362.5,2603C 4123.99,2841.68 3885.32,3080.18 3646.5,3318.5C 3601.15,3287.49 3556.15,3255.99 3511.5,3224C 3512.83,3223.33 3512.83,3222.67 3511.5,3222C 3458.33,3185.25 3405.33,3148.25 3352.5,3111C 3088.36,2926.43 2823.69,2742.59 2558.5,2559.5C 2405.12,2665.74 2258.45,2780.91 2118.5,2905C 2011.47,3000.69 1911.3,3102.86 1818,3211.5C 1797.76,3235.65 1777.76,3259.98 1758,3284.5C 1757.33,3285.17 1757.33,3285.83 1758,3286.5C 1775.83,3304.33 1793.67,3322.17 1811.5,3340C 1812.17,3340.67 1812.83,3340.67 1813.5,3340C 1917.3,3211.85 2030.63,3092.19 2153.5,2981C 2284.85,2863.28 2423.35,2755.11 2569,2656.5C 2859.16,2869.58 3149.16,3082.92 3439,3296.5C 3441.18,3294.13 3443.35,3294.3 3445.5,3297C 3488.45,3328.28 3531.12,3359.95 3573.5,3392C 3250.32,3715.35 2926.99,4038.51 2603.5,4361.5C 2229.5,3988.17 1855.83,3614.5 1482.5,3240.5C 1572.59,3089.61 1671.09,2944.61 1778,2805.5C 1985.93,2538.32 2235.43,2319.99 2526.5,2150.5C 2935.42,2427.41 3344.08,2704.74 3752.5,2982.5C 3879.5,2856.17 4006.17,2729.5 4132.5,2602.5C 3623.18,2092.68 3113.68,1583.01 2604,1073.5C 2094.17,1583.33 1584.33,2093.17 1074.5,2603C 1192.67,2721.17 1310.83,2839.33 1429,2957.5C 1603.87,2595.12 1819.87,2260.79 2077,1954.5C 2175.19,1838.63 2280.69,1729.47 2393.5,1627C 2438.89,1586.6 2485.72,1548.1 2534,1511.5C 2537.9,1513.87 2541.74,1516.37 2545.5,1519C 3000.17,1868.33 3454.83,2217.67 3909.5,2567C 3910.83,2568.33 3912.17,2569.67 3913.5,2571C 3823.02,2646.74 3732.35,2722.24 3641.5,2797.5C 3265.11,2537.11 2888.44,2277.11 2511.5,2017.5C 2352.42,2112.6 2205.76,2224.43 2071.5,2353C 1960.79,2461.98 1860.95,2579.48 1772,2705.5C 1683.41,2832.96 1601.08,2964.63 1525,3100.5C 1503.17,3139.5 1481.33,3178.5 1459.5,3217.5C 1254.35,3012.85 1049.35,2808.01 844.5,2603C 1430.7,2016.97 2016.7,1430.8 2602.5,844.5 Z"/></g>
</svg>
