<svg width="100%" viewBox="0 0 688 421" fill="none" xmlns="http://www.w3.org/2000/svg"><rect y=".822" width="688" height="420" rx="25" fill="url(#a)"/><path d="M369 44.5h318.5v159H369c-13.531 0-24.5-10.969-24.5-24.5V69c0-13.531 10.969-24.5 24.5-24.5Z" fill="#fff" stroke="#EAEFFF"/><path d="M444.362 176.059V164.55h3.749v-3.75h-46.864a1.87 1.87 0 0 1-1.874-1.874V85.818h86.229v14.997h3.749V85.818h3.749a1.877 1.877 0 0 0 1.875-1.874v-7.498a5.626 5.626 0 0 0-5.624-5.624h-93.727A5.624 5.624 0 0 0 390 76.446v7.498a1.873 1.873 0 0 0 1.875 1.874h3.749v73.108a5.621 5.621 0 0 0 5.623 5.624h39.366v11.509a7.503 7.503 0 0 0-5.564 8.205 7.497 7.497 0 1 0 9.313-8.205Zm-50.613-99.613a1.877 1.877 0 0 1 1.875-1.875h93.727a1.877 1.877 0 0 1 1.875 1.875v5.623h-97.477v-5.623Zm48.738 110.598a3.746 3.746 0 0 1-3.463-2.314 3.753 3.753 0 0 1 .812-4.086 3.752 3.752 0 0 1 5.769.568 3.752 3.752 0 0 1-.467 4.734 3.748 3.748 0 0 1-2.651 1.098Z" fill="url(#b)"/><path d="M476.229 104.564a33.512 33.512 0 0 0-18.22 5.38L443.8 95.734a1.877 1.877 0 0 0-1.313-.543h-35.616v3.75h34.848l13.215 13.215a33.741 33.741 0 1 0 21.295-7.592Zm1.875 3.843a29.823 29.823 0 0 1 17.939 7.498l-17.939 17.883v-25.381Zm-31.867 29.899a29.993 29.993 0 0 1 28.118-29.899v29.899a1.863 1.863 0 0 0 .543 1.331l21.145 21.163a29.988 29.988 0 0 1-45.005-6.239 29.99 29.99 0 0 1-4.801-16.255Zm52.487 19.814-19.852-19.814 19.852-19.814a29.807 29.807 0 0 1 0 39.628Z" fill="url(#c)"/><path d="M436.864 104.564c0-.497-.198-.974-.549-1.326a1.879 1.879 0 0 0-1.326-.549h-26.243a1.877 1.877 0 0 0-1.875 1.875v11.247a1.875 1.875 0 0 0 1.875 1.875h26.243c.497 0 .974-.198 1.326-.549.351-.352.549-.829.549-1.326v-11.247Zm-3.749 9.373H410.62v-7.498h22.495v7.498Z" fill="url(#d)"/><path d="M436.864 123.31a1.877 1.877 0 0 0-1.875-1.875h-26.243a1.877 1.877 0 0 0-1.875 1.875v11.247a1.87 1.87 0 0 0 1.875 1.874h26.243a1.875 1.875 0 0 0 1.875-1.874V123.31Zm-3.749 9.372H410.62v-7.498h22.495v7.498Z" fill="url(#e)"/><path d="M434.989 140.18h-26.243a1.877 1.877 0 0 0-1.875 1.875v11.247a1.875 1.875 0 0 0 1.875 1.875h26.243c.497 0 .974-.198 1.326-.549.351-.352.549-.829.549-1.326v-11.247c0-.497-.198-.974-.549-1.326a1.879 1.879 0 0 0-1.326-.549Zm-1.874 11.248H410.62v-7.498h22.495v7.498Z" fill="url(#f)"/><path d="M481.853 89.567h-3.749v3.75h3.749v-3.75Z" fill="url(#g)"/><path d="M474.355 89.567h-3.749v3.75h3.749v-3.75Z" fill="url(#h)"/><path d="M481.853 97.066h-3.749v3.749h3.749v-3.75Z" fill="url(#i)"/><path d="m551.763 123.822-5.157-16.802h-.131l.087 1.817c.049.8.093 1.655.132 2.563.039.908.059 1.729.059 2.461v9.961h-4.058v-21.416h6.182l5.068 16.377h.088l5.376-16.377h6.182v21.416h-4.234v-10.137c0-.674.01-1.45.03-2.329.029-.879.063-1.714.102-2.505l.088-1.801h-.132l-5.522 16.772h-4.16Zm33.764-8.218c0 1.367-.185 2.578-.556 3.633-.362 1.055-.894 1.948-1.597 2.681a6.713 6.713 0 0 1-2.52 1.64c-.976.371-2.08.557-3.31.557-1.152 0-2.212-.186-3.179-.557a7.073 7.073 0 0 1-2.505-1.64c-.703-.733-1.25-1.626-1.64-2.681-.381-1.055-.572-2.266-.572-3.633 0-1.816.323-3.354.967-4.614.645-1.26 1.563-2.217 2.754-2.871 1.192-.654 2.612-.982 4.263-.982 1.533 0 2.89.328 4.072.982 1.192.654 2.124 1.611 2.798 2.871.684 1.26 1.025 2.798 1.025 4.614Zm-11.323 0c0 1.074.117 1.978.352 2.71.234.733.6 1.284 1.098 1.655.498.372 1.148.557 1.949.557.791 0 1.43-.185 1.918-.557.499-.371.86-.922 1.084-1.655.235-.732.352-1.636.352-2.71 0-1.084-.117-1.982-.352-2.695-.224-.723-.585-1.265-1.084-1.626-.498-.361-1.147-.542-1.948-.542-1.181 0-2.041.405-2.578 1.216-.527.81-.791 2.026-.791 3.647Zm24.155-8.467c.225 0 .484.015.777.044.302.02.547.049.732.088l-.337 4.19a2.71 2.71 0 0 0-.63-.103 6.407 6.407 0 0 0-.688-.044c-.576 0-1.138.073-1.685.22a4.115 4.115 0 0 0-1.45.718c-.43.322-.771.752-1.025 1.289-.244.527-.366 1.177-.366 1.948v8.335h-4.468v-16.377h3.384l.659 2.754h.219a6.884 6.884 0 0 1 1.202-1.523 5.745 5.745 0 0 1 1.655-1.114 4.843 4.843 0 0 1 2.021-.425Zm11.236 0c1.513 0 2.817.293 3.911.879a6.01 6.01 0 0 1 2.534 2.52c.596 1.103.894 2.451.894 4.043v2.168h-10.562c.049 1.26.425 2.251 1.128 2.973.713.713 1.699 1.07 2.959 1.07 1.045 0 2.002-.108 2.871-.322a14.681 14.681 0 0 0 2.681-.967v3.457c-.811.4-1.66.693-2.549.879-.879.185-1.948.278-3.208.278-1.641 0-3.096-.303-4.365-.908-1.26-.606-2.251-1.529-2.974-2.769-.713-1.24-1.069-2.803-1.069-4.687 0-1.914.322-3.506.966-4.776.655-1.279 1.563-2.236 2.725-2.871 1.162-.644 2.515-.967 4.058-.967Zm.029 3.179c-.869 0-1.592.278-2.168.835-.566.557-.894 1.431-.981 2.622h6.269c-.01-.664-.132-1.255-.366-1.772a2.754 2.754 0 0 0-1.025-1.231c-.45-.302-1.026-.454-1.729-.454Zm-66.267 52.682a8.823 8.823 0 0 1-1.678-.141 5.68 5.68 0 0 1-1.336-.43v-1.468c.369.187.803.36 1.301.518.498.153 1.075.229 1.731.229.404 0 .791-.047 1.16-.141a3.03 3.03 0 0 0 .985-.439c.292-.199.521-.454.685-.765.17-.31.255-.68.255-1.107 0-.346-.076-.651-.229-.914-.146-.27-.38-.528-.703-.774a9.606 9.606 0 0 0-1.265-.808 10.138 10.138 0 0 1-1.204-.827 3.37 3.37 0 0 1-.835-1.019c-.205-.393-.308-.867-.308-1.424 0-.598.111-1.125.334-1.582.223-.463.527-.85.914-1.16a4.047 4.047 0 0 1 1.345-.712 5.25 5.25 0 0 1 1.617-.246c.674 0 1.26.067 1.758.202s.978.316 1.441.545l-.571 1.266a6.58 6.58 0 0 0-1.187-.475 4.675 4.675 0 0 0-1.441-.22c-.369 0-.715.05-1.037.15a2.39 2.39 0 0 0-.835.43c-.24.194-.428.434-.563.721a2.263 2.263 0 0 0-.202.984c0 .381.071.698.211.95.147.252.358.48.633.685.281.205.627.428 1.037.668.522.305.982.609 1.38.914.398.299.709.648.932 1.046.222.393.334.888.334 1.485 0 .645-.115 1.21-.343 1.697a3.21 3.21 0 0 1-.958 1.204 4.452 4.452 0 0 1-1.477.72 6.966 6.966 0 0 1-1.881.238Zm8.965 0c-.638 0-1.172-.153-1.599-.457-.422-.311-.633-.841-.633-1.591a5.765 5.765 0 0 1 .149-1.257l1.134-5.388h-1.485l.14-.676 1.6-.616 1.055-2.039h.87l-.484 2.215h2.479l-.229 1.116h-2.469l-1.143 5.406c-.041.164-.079.34-.114.527-.03.188-.044.366-.044.536 0 .293.076.539.228.738.153.194.408.29.765.29.223 0 .434-.02.633-.061.205-.041.422-.1.65-.176v1.125c-.146.07-.369.138-.668.202a3.545 3.545 0 0 1-.835.106Zm6.17 0c-.521 0-.978-.126-1.371-.378-.392-.252-.697-.624-.914-1.116-.217-.493-.325-1.093-.325-1.802 0-.709.073-1.392.22-2.048a8.524 8.524 0 0 1 .641-1.828 6.241 6.241 0 0 1 .993-1.477 4.4 4.4 0 0 1 1.319-.984 3.578 3.578 0 0 1 1.573-.352c.434 0 .809.082 1.125.247.322.164.589.38.8.65.217.264.386.545.509.844h.088l.563-1.565h1.116l-2.039 9.633h-1.169l.264-1.863h-.071a7.19 7.19 0 0 1-.905.993c-.34.31-.712.562-1.116.756a2.98 2.98 0 0 1-1.301.29Zm.475-1.213c.451 0 .896-.164 1.336-.492.445-.334.843-.783 1.195-1.345.357-.568.63-1.207.817-1.916.094-.346.156-.662.185-.949.035-.293.053-.566.053-.818 0-.603-.161-1.089-.484-1.459-.316-.375-.75-.562-1.3-.562-.393 0-.762.1-1.108.299a3.22 3.22 0 0 0-.94.817c-.276.346-.513.75-.712 1.213a7.545 7.545 0 0 0-.466 1.494 8.67 8.67 0 0 0-.158 1.661c0 .674.137 1.187.413 1.538.275.346.665.519 1.169.519Zm5.713 5.37c-.287 0-.519-.018-.695-.053a4.89 4.89 0 0 1-.527-.132v-1.186c.158.041.334.076.527.105.194.036.399.053.616.053.48 0 .893-.152 1.239-.457.346-.305.682-.753 1.011-1.345l.676-1.204-1.476-9.747h1.476l.668 4.948c.059.387.106.803.141 1.248.035.44.061.859.079 1.257.018.393.026.712.026.958h.053c.082-.193.205-.471.369-.835.164-.369.34-.753.528-1.151.187-.398.354-.732.501-1.002l2.891-5.423h1.565l-6.17 11.303a8.547 8.547 0 0 1-.976 1.468 3.344 3.344 0 0 1-1.098.896c-.405.199-.879.299-1.424.299Zm16.734-4.157c-.639 0-1.172-.153-1.6-.457-.421-.311-.632-.841-.632-1.591 0-.182.011-.378.035-.589.023-.217.061-.439.114-.668l1.134-5.388h-1.486l.141-.676 1.6-.616 1.054-2.039h.871l-.484 2.215h2.479l-.229 1.116h-2.47l-1.142 5.406c-.041.164-.079.34-.114.527-.03.188-.044.366-.044.536 0 .293.076.539.228.738.152.194.407.29.765.29.222 0 .433-.02.633-.061.205-.041.421-.1.65-.176v1.125c-.146.07-.369.138-.668.202a3.545 3.545 0 0 1-.835.106Zm6.091 0c-.486 0-.911-.091-1.275-.273a1.948 1.948 0 0 1-.843-.799c-.194-.358-.29-.794-.29-1.31 0-.258.017-.507.052-.747.041-.246.085-.501.132-.765l1.275-5.915h1.476l-1.309 6.082c-.047.252-.085.478-.115.677a4.44 4.44 0 0 0-.035.519c0 .416.106.741.317.975.216.229.559.343 1.028.343.439 0 .899-.15 1.38-.448.486-.299.934-.768 1.345-1.407.416-.644.732-1.479.949-2.504l.896-4.237h1.442l-2.039 9.633h-1.204l.237-1.863h-.079a8.035 8.035 0 0 1-.809.931 4.528 4.528 0 0 1-1.098.791c-.417.211-.894.317-1.433.317Zm7.418-.176 2.065-9.677h1.292l-.228 1.855h.017c.223-.305.49-.613.8-.923.317-.317.683-.58 1.099-.791a3.085 3.085 0 0 1 1.432-.325c.516 0 .958.096 1.328.29.369.187.653.463.852.826.199.357.299.791.299 1.301 0 .269-.021.542-.062.817-.041.275-.085.522-.131.738l-1.284 5.889h-1.555l1.3-6.082c.053-.264.094-.489.124-.677.035-.187.052-.363.052-.527 0-.41-.111-.721-.334-.932-.222-.211-.551-.316-.984-.316-.428 0-.879.146-1.354.439-.474.293-.914.756-1.318 1.389-.404.627-.718 1.447-.94 2.461l-.906 4.245h-1.564Zm14.291.176c-.721 0-1.342-.144-1.863-.431a2.985 2.985 0 0 1-1.205-1.248c-.275-.545-.413-1.195-.413-1.951 0-.779.112-1.544.334-2.294a7.267 7.267 0 0 1 .976-2.048 5.05 5.05 0 0 1 1.52-1.468 3.787 3.787 0 0 1 2.004-.545c.885 0 1.556.2 2.013.598.457.393.686.935.686 1.626 0 .486-.115.935-.343 1.345-.223.41-.569.767-1.037 1.072-.463.299-1.052.533-1.767.703-.709.164-1.55.246-2.522.246h-.334c-.012.106-.024.223-.035.352a7.781 7.781 0 0 0-.009.36c0 .774.187 1.38.562 1.82.375.433.938.65 1.688.65.463 0 .899-.065 1.309-.193.416-.135.85-.311 1.301-.528v1.257a9.65 9.65 0 0 1-1.309.492c-.44.123-.958.185-1.556.185Zm-1.74-5.59h.211c.75 0 1.438-.064 2.065-.193.627-.135 1.131-.352 1.512-.651.381-.304.571-.709.571-1.213 0-.328-.111-.597-.334-.808-.223-.211-.562-.317-1.02-.317-.404 0-.802.126-1.195.378-.392.246-.75.607-1.072 1.081-.316.475-.563 1.049-.738 1.723Zm9.826 5.59c-.528 0-.988-.123-1.38-.369-.393-.246-.697-.613-.914-1.099-.217-.492-.325-1.102-.325-1.828 0-.692.07-1.362.211-2.013.14-.656.342-1.265.606-1.828.27-.562.598-1.055.984-1.476a4.224 4.224 0 0 1 1.319-.994 3.716 3.716 0 0 1 1.635-.36c.451 0 .837.082 1.16.246.322.164.589.378.8.642.216.258.386.536.509.835h.088c.035-.27.07-.531.106-.783.035-.257.076-.518.123-.782.052-.263.111-.536.175-.817l.677-3.226h1.45l-2.9 13.676h-1.204l.237-1.863h-.061a8.43 8.43 0 0 1-.923 1.01c-.328.311-.689.56-1.081.748a2.966 2.966 0 0 1-1.292.281Zm.492-1.213c.275 0 .554-.067.835-.202.287-.135.565-.325.835-.572.269-.251.521-.547.756-.887a6.5 6.5 0 0 0 .615-1.125 6.667 6.667 0 0 0 .571-2.716c0-.621-.149-1.116-.448-1.485-.299-.37-.776-.554-1.433-.554a2.16 2.16 0 0 0-1.125.308 3.374 3.374 0 0 0-.922.843c-.276.358-.51.771-.704 1.24a8.181 8.181 0 0 0-.588 3.093c0 .674.134 1.187.404 1.538.269.346.671.519 1.204.519Zm7.813-2.531 1.679-9.282h1.776l-2.268 9.282h-1.187Zm-.105 3.814c-.287 0-.51-.082-.668-.246-.152-.158-.228-.381-.228-.668 0-.357.099-.677.298-.958.205-.281.528-.422.967-.422.258 0 .463.079.615.237.159.159.238.384.238.677 0 .328-.1.642-.299.941-.199.293-.507.439-.923.439Z" fill="#333"/><path d="M70 118.822a5 5 0 0 1 5-5h50a5 5 0 0 1 5 5v302H70v-302Zm90-53a5 5 0 0 1 5-5h50a5 5 0 0 1 5 5v355h-60v-355Zm90 212a5 5 0 0 1 5-5h50a5 5 0 0 1 5 5v143h-60v-143Zm90 0a5 5 0 0 1 5-5h50a5 5 0 0 1 5 5v143h-60v-143Zm90-42a5 5 0 0 1 5-5h50a5 5 0 0 1 5 5v185h-60v-185Zm90 83a5 5 0 0 1 5-5h50a5 5 0 0 1 5 5v102h-60v-102Zm90-43a5 5 0 0 1 5-5h50a5 5 0 0 1 5 5v145h-60v-145Z" fill="#F8FAFF"/><path d="M60 128.822a5 5 0 0 1 5-5h50a5 5 0 0 1 5 5v292H60v-292Zm90-53a5 5 0 0 1 5-5h50a5 5 0 0 1 5 5v345h-60v-345Zm90 210a5 5 0 0 1 5-5h50a5 5 0 0 1 5 5v135h-60v-135Zm90 0a5 5 0 0 1 5-5h50a5 5 0 0 1 5 5v135h-60v-135Zm90-40a5 5 0 0 1 5-5h50a5 5 0 0 1 5 5v175h-60v-175Zm90 80a5 5 0 0 1 5-5h50a5 5 0 0 1 5 5v95h-60v-95Zm90-40a5 5 0 0 1 5-5h50a5 5 0 0 1 5 5v135h-60v-135Z" fill="#EAEFFF"/><path d="M30.377 383.718c.83 0 1.488.239 1.976.717.492.474.738 1.117.738 1.928 0 .734-.166 1.379-.5 1.935a3.123 3.123 0 0 1-1.394 1.251c-.597.273-1.299.41-2.105.41-.88 0-1.632-.18-2.256-.54v-1.121c.747.464 1.508.697 2.283.697.87 0 1.55-.219 2.037-.656.488-.438.732-1.049.732-1.832 0-.575-.169-1.028-.506-1.361-.333-.337-.798-.506-1.395-.506-.218 0-.44.016-.663.048a7.74 7.74 0 0 0-.95.205l-.506-.389 1.347-4.676h4.566l-.225 1.046h-3.569l-.868 3.001a4.896 4.896 0 0 1 1.258-.157Zm-7.779-51.896h-1.176l1.34-6.241c.269-1.19.47-2.008.601-2.454a5.262 5.262 0 0 1-.95.758l-1.217.752-.547-.868 3.07-1.941h1.018l-2.14 9.994Zm11.156-6.932c0 1.345-.18 2.573-.54 3.685-.356 1.112-.843 1.955-1.463 2.529-.615.57-1.33.855-2.146.855-.803 0-1.418-.29-1.846-.868-.429-.584-.643-1.427-.643-2.53 0-1.23.187-2.401.56-3.513.375-1.117.867-1.958 1.477-2.523.616-.57 1.317-.854 2.106-.854 1.663 0 2.495 1.073 2.495 3.219Zm-2.564-2.235c-.515 0-.99.264-1.428.793-.438.524-.793 1.26-1.067 2.208a10.495 10.495 0 0 0-.403 2.892c0 .783.114 1.385.342 1.804.228.42.595.629 1.1.629.524 0 1-.26 1.43-.779.427-.52.77-1.267 1.024-2.242.26-.976.39-2.008.39-3.097 0-1.472-.462-2.208-1.388-2.208Zm-8.592-48.833h-1.176l1.34-6.241c.269-1.19.47-2.008.601-2.454a5.262 5.262 0 0 1-.95.758l-1.217.752-.547-.868 3.07-1.941h1.018l-2.14 9.994Zm7.779-6.104c.83 0 1.488.239 1.976.717.492.474.738 1.117.738 1.928 0 .734-.166 1.379-.5 1.935a3.123 3.123 0 0 1-1.394 1.251c-.597.273-1.299.41-2.105.41-.88 0-1.632-.18-2.256-.54v-1.121c.747.464 1.508.697 2.283.697.87 0 1.55-.219 2.037-.656.488-.438.732-1.049.732-1.832 0-.575-.169-1.028-.506-1.361-.333-.337-.798-.506-1.395-.506-.218 0-.44.016-.663.048a7.74 7.74 0 0 0-.95.205l-.506-.389 1.347-4.676h4.566l-.225 1.046h-3.569l-.868 3.001a4.896 4.896 0 0 1 1.258-.157Zm-5.571-51.896H18.66l.212-1.005 3.179-2.871c.465-.424.866-.795 1.203-1.114.342-.324.622-.627.84-.909.224-.288.388-.57.493-.848.11-.283.164-.595.164-.937 0-.451-.137-.808-.41-1.073-.274-.264-.645-.396-1.114-.396-.351 0-.695.066-1.033.198-.332.128-.701.346-1.107.656l-.56-.786c.87-.702 1.81-1.053 2.823-1.053.802 0 1.435.203 1.9.609.47.401.704.954.704 1.661 0 .506-.091.971-.273 1.394-.178.424-.477.873-.896 1.347-.415.474-1.084 1.114-2.01 1.921l-2.406 2.099v.054h4.635l-.198 1.053Zm8.948-6.932c0 1.345-.18 2.573-.54 3.685-.356 1.112-.843 1.955-1.463 2.529-.615.57-1.33.855-2.146.855-.803 0-1.418-.29-1.846-.868-.429-.584-.643-1.427-.643-2.53 0-1.23.187-2.401.56-3.513.375-1.117.867-1.958 1.477-2.523.616-.57 1.317-.854 2.106-.854 1.663 0 2.495 1.073 2.495 3.219Zm-2.564-2.235c-.515 0-.99.264-1.428.793-.438.524-.793 1.26-1.067 2.208a10.495 10.495 0 0 0-.403 2.892c0 .783.114 1.385.342 1.804.228.42.595.629 1.1.629.524 0 1-.26 1.43-.779.427-.52.77-1.267 1.024-2.242.26-.976.39-2.008.39-3.097 0-1.472-.462-2.208-1.388-2.208Zm-6.384-48.833H18.66l.212-1.005 3.179-2.871c.465-.424.866-.795 1.203-1.114.342-.324.622-.627.84-.909.224-.288.388-.57.493-.848.11-.283.164-.595.164-.937 0-.451-.137-.808-.41-1.073-.274-.264-.645-.396-1.114-.396-.351 0-.695.066-1.033.198-.332.128-.701.346-1.107.656l-.56-.786c.87-.702 1.81-1.053 2.823-1.053.802 0 1.435.203 1.9.609.47.401.704.954.704 1.661 0 .506-.091.971-.273 1.394-.178.424-.477.873-.896 1.347-.415.474-1.084 1.114-2.01 1.921l-2.406 2.099v.054h4.635l-.198 1.053Zm5.571-6.104c.83 0 1.488.239 1.976.717.492.474.738 1.117.738 1.928 0 .734-.166 1.379-.5 1.935a3.123 3.123 0 0 1-1.394 1.251c-.597.273-1.299.41-2.105.41-.88 0-1.632-.18-2.256-.54v-1.121c.747.464 1.508.697 2.283.697.87 0 1.55-.219 2.037-.656.488-.438.732-1.049.732-1.832 0-.575-.169-1.028-.506-1.361-.333-.337-.798-.506-1.395-.506-.218 0-.44.016-.663.048a7.74 7.74 0 0 0-.95.205l-.506-.389 1.347-4.676h4.566l-.225 1.046h-3.569l-.868 3.001a4.896 4.896 0 0 1 1.258-.157Zm-7.711-58c.83 0 1.488.239 1.976.717.492.474.738 1.117.738 1.928 0 .734-.166 1.379-.5 1.935a3.123 3.123 0 0 1-1.394 1.25c-.597.274-1.299.41-2.105.41-.88 0-1.632-.18-2.256-.54v-1.12c.747.465 1.509.697 2.283.697.87 0 1.55-.219 2.037-.656.488-.438.732-1.049.732-1.832 0-.575-.169-1.028-.506-1.36-.333-.338-.798-.507-1.395-.507-.218 0-.44.016-.663.048-.223.028-.54.096-.95.205l-.506-.39 1.347-4.675h4.566l-.225 1.046h-3.569l-.868 3a4.9 4.9 0 0 1 1.258-.156Zm11.088-.828c0 1.345-.18 2.573-.54 3.685-.356 1.112-.843 1.955-1.463 2.53-.615.569-1.33.854-2.146.854-.803 0-1.418-.29-1.846-.868-.429-.584-.643-1.427-.643-2.53 0-1.23.187-2.401.56-3.513.375-1.117.867-1.958 1.477-2.523.616-.57 1.317-.854 2.106-.854 1.663 0 2.495 1.073 2.495 3.22Zm-2.564-2.235c-.515 0-.99.264-1.428.793-.438.524-.793 1.26-1.067 2.208a10.498 10.498 0 0 0-.403 2.892c0 .784.114 1.385.342 1.804.228.42.595.63 1.1.63.524 0 1-.26 1.43-.78.427-.52.77-1.267 1.024-2.242.26-.975.39-2.008.39-3.097 0-1.472-.462-2.208-1.388-2.208Z" fill="#fff"/><defs><linearGradient id="a" x1="739.136" y1="48.869" x2="387.309" y2="637.553" gradientUnits="userSpaceOnUse"><stop stop-color="#35D5A5"/><stop offset=".321" stop-color="#00C7C5"/><stop offset=".578" stop-color="#2D9BE0"/><stop offset=".722" stop-color="#5277F7"/><stop offset=".801" stop-color="#5B75F6"/><stop offset=".929" stop-color="#7370F4"/><stop offset="1" stop-color="#836DF3"/></linearGradient><linearGradient id="b" x1="502.777" y1="84.549" x2="389.364" y2="185.893" gradientUnits="userSpaceOnUse"><stop stop-color="#FC9F47"/><stop offset=".649" stop-color="#D73777"/><stop offset="1" stop-color="#8F44B2"/></linearGradient><linearGradient id="c" x1="517.665" y1="103.983" x2="448.052" y2="199.396" gradientUnits="userSpaceOnUse"><stop stop-color="#FC9F47"/><stop offset=".649" stop-color="#D73777"/><stop offset="1" stop-color="#8F44B2"/></linearGradient><linearGradient id="d" x1="439.093" y1="104.405" x2="427.828" y2="127.418" gradientUnits="userSpaceOnUse"><stop stop-color="#FC9F47"/><stop offset=".649" stop-color="#D73777"/><stop offset="1" stop-color="#8F44B2"/></linearGradient><linearGradient id="e" x1="439.093" y1="123.151" x2="427.828" y2="146.164" gradientUnits="userSpaceOnUse"><stop stop-color="#FC9F47"/><stop offset=".649" stop-color="#D73777"/><stop offset="1" stop-color="#8F44B2"/></linearGradient><linearGradient id="f" x1="439.093" y1="141.896" x2="427.828" y2="164.909" gradientUnits="userSpaceOnUse"><stop stop-color="#FC9F47"/><stop offset=".649" stop-color="#D73777"/><stop offset="1" stop-color="#8F44B2"/></linearGradient><linearGradient id="g" x1="482.132" y1="89.996" x2="478.567" y2="93.638" gradientUnits="userSpaceOnUse"><stop stop-color="#FC9F47"/><stop offset=".649" stop-color="#D73777"/><stop offset="1" stop-color="#8F44B2"/></linearGradient><linearGradient id="h" x1="474.633" y1="89.996" x2="471.068" y2="93.638" gradientUnits="userSpaceOnUse"><stop stop-color="#FC9F47"/><stop offset=".649" stop-color="#D73777"/><stop offset="1" stop-color="#8F44B2"/></linearGradient><linearGradient id="i" x1="482.132" y1="97.495" x2="478.567" y2="101.136" gradientUnits="userSpaceOnUse"><stop stop-color="#FC9F47"/><stop offset=".649" stop-color="#D73777"/><stop offset="1" stop-color="#8F44B2"/></linearGradient></defs></svg>