<svg width="100%" viewBox="0 0 196 196"  fill="none" xmlns="http://www.w3.org/2000/svg"><rect x="15" y="15" width="166" height="166" rx="83" fill="#F8FAFF"/><path d="M108.12 82.834a1.123 1.123 0 0 0-1.473.072l-9.1 8.73a1.125 1.125 0 1 0 1.556 1.62l8.394-8.052 8.702 6.855c.406.32.977.322 1.386.005l12.277-9.541-.439 5.711a1.125 1.125 0 0 0 2.242.173l.635-8.254a1.121 1.121 0 0 0-.27-.82 1.12 1.12 0 0 0-.771-.387l-8.888-.635a1.124 1.124 0 0 0-.161 2.243l5.973.426-11.283 8.77-8.78-6.915Zm26.851 47.607h-2.45V97.475a1.09 1.09 0 0 0-1.129-1.078H121.24a1.05 1.05 0 0 0-1.084 1.078v32.966h-6.102V103.7c0-.621-.497-1.2-1.118-1.2h-10.152c-.62 0-1.095.579-1.095 1.2v26.741h-6.102v-15.148a1.064 1.064 0 0 0-1.106-1.071H84.329a1.064 1.064 0 0 0-1.107 1.071v15.148H63.366a1.125 1.125 0 0 0 0 2.248h71.605a1.123 1.123 0 1 0 0-2.248Zm-31.034-25.693h7.869v25.693h-7.869v-25.693ZM85.47 130.441V116.47h7.868v13.971H85.47Zm36.934 0V98.646h7.869v31.795h-7.869ZM77.28 76.637v-1.765a5.46 5.46 0 0 0-10.92 0v1.765a5.46 5.46 0 0 0 10.92 0Zm-8.672 0v-1.765a3.257 3.257 0 0 1 3.25-3.286h-.056a3.242 3.242 0 0 1 3.23 3.286v1.765c0 1.812-1.4 3.287-3.212 3.287-1.812 0-3.212-1.475-3.212-3.287Z" fill="#273B98"/><path d="m63.477 105.069.04.035c.512 0 1.017-.114 1.48-.334l.594 19.988a3.76 3.76 0 0 0 6.396 2.549 3.758 3.758 0 0 0 6.398-2.548l.592-19.949c.467.218.976.331 1.491.331a3.561 3.561 0 0 0 3.556-3.56V88.078a5.717 5.717 0 0 0-5.104-6.23c-.191-.019-.38-.064-.571-.064h-2.323c-.29.014-.564.135-.77.34l-3.267 3.084-3.137-3.079a1.153 1.153 0 0 0-.784-.345h-2.465a5.752 5.752 0 0 0-5.698 5.76c0 .171.032.363.032.534v13.505a3.447 3.447 0 0 0 1.034 2.48 3.481 3.481 0 0 0 2.505 1.006h.001Zm11.145 21.075a1.518 1.518 0 0 1-1.517-1.514v-19.927a1.124 1.124 0 0 0-2.249 0v19.927a1.511 1.511 0 0 1-3.02.041l-.686-23.135h9.674l-.688 23.127a1.528 1.528 0 0 1-1.514 1.481Zm-12.437-24.561v-13.56c0-.037-.01-.074-.015-.111a3.599 3.599 0 0 1-.022-.35 3.52 3.52 0 0 1 1.012-2.48 3.464 3.464 0 0 1 2.442-1.05h2.009l3.581 3.519c.008.007.015.03.023.037.015.014.03.037.046.05.013.01.027.026.04.036l.05.038.044.028a.802.802 0 0 0 .15.077.637.637 0 0 0 .05.02l.051.017.053.015a.594.594 0 0 0 .106.021.74.74 0 0 0 .161.013h.053l.056-.003a1.022 1.022 0 0 0 .157-.026 1.533 1.533 0 0 0 .104-.03l.054-.02a1.77 1.77 0 0 0 .098-.045c.017-.008.032-.017.048-.026l.049-.03a.94.94 0 0 0 .09-.065c.016-.012.03-.025.044-.037.009-.007.017-.05.025-.057l3.727-3.533h1.878c.115 0 .233.042.348.054a3.477 3.477 0 0 1 3.089 3.807c-.004.038-.01.093-.01.131v13.557a1.285 1.285 0 1 1-2.57 0v-2.95l.015-.465c.002-.071-.014-.14-.014-.209v-5.449a1.124 1.124 0 1 0-2.248 0v6.086l-.068.695h-9.808l-.051-1.212c-.002-.048-.03-.073-.03-.12v-5.449a1.124 1.124 0 1 0-2.248 0v9.007a1.258 1.258 0 0 1-1.26 1.307h-.018a1.248 1.248 0 0 1-.916-.348 1.211 1.211 0 0 1-.375-.89Zm30.949-38.345c-6.604 0-11.958 5.353-11.958 11.958 0 6.604 5.354 11.958 11.958 11.958 6.605 0 11.958-5.354 11.958-11.958-.007-6.601-5.357-11.95-11.958-11.958Zm0 21.668c-5.362 0-9.71-4.347-9.71-9.71s4.347-9.71 9.71-9.71c5.362 0 9.71 4.347 9.71 9.71-.006 5.36-4.35 9.703-9.71 9.71Z" fill="#273B98"/><path d="M96.134 70.323a1.124 1.124 0 1 0 .808-2.098 7.124 7.124 0 0 0-9.27 4.245h-1.239a1.124 1.124 0 0 0 0 2.249h.826c-.006.268.002.535.026.803h-.852a1.124 1.124 0 0 0 0 2.248h1.435a7.128 7.128 0 0 0 9.073 3.755 1.124 1.124 0 1 0-.808-2.099 4.88 4.88 0 0 1-5.681-1.656h4.171a1.124 1.124 0 0 0 0-2.248h-5.077a4.86 4.86 0 0 1-.04-.803h5.92a1.124 1.124 0 0 0 0-2.249h-5.29a4.874 4.874 0 0 1 5.998-2.147Z" fill="#273B98"/><rect x="15" y="15" width="166" height="166" rx="83" stroke="#EAEFFF" stroke-opacity=".21" stroke-width="29"/></svg>