<svg width="195" height="196" fill="none" xmlns="http://www.w3.org/2000/svg"><rect x="14.5" y="15" width="166" height="166" rx="83" fill="#F8FAFF"/><path d="M134.366 126.264h-1.228v-11.06a3.696 3.696 0 0 0-1.68-3.085l2.662-3.55a1.227 1.227 0 0 0-.982-1.967 2.456 2.456 0 0 1-2.458-2.458v-3.686a13.5 13.5 0 0 0-4.916-10.42V61.134a1.227 1.227 0 0 0-1.229-1.23H60.634a1.23 1.23 0 0 0-1.23 1.23v46.697a1.228 1.228 0 0 0 1.23 1.229h31.35l8.233 10.585c.15.192.352.335.583.412a4.156 4.156 0 0 1 2.844 3.949v2.258h-3.686a1.231 1.231 0 0 0-1.23 1.229v7.373a1.228 1.228 0 0 0 1.23 1.229h34.408a1.226 1.226 0 0 0 1.229-1.229v-7.373a1.228 1.228 0 0 0-1.229-1.229Zm-6.144-25.806v3.686a4.921 4.921 0 0 0 2.813 4.443l-2.199 2.931h-6.758v-1.554a8.582 8.582 0 0 0 3.686-7.048v-6.145a1.226 1.226 0 0 0-1.229-1.229 4.668 4.668 0 0 1-3.326-1.377l-.72-.72a1.23 1.23 0 0 0-.869-.36h-1.878a10.066 10.066 0 0 0-9.053 5.595c-.085.17-.129.358-.129.549v3.687a8.584 8.584 0 0 0 3.687 7.048v1.554h-6.741l-2.137-2.993a4.904 4.904 0 0 0 2.733-4.381v-3.686a11.063 11.063 0 0 1 18.88-7.82 11.057 11.057 0 0 1 3.24 7.82Zm-11.06 8.602a6.149 6.149 0 0 1-6.144-6.144V99.53a7.611 7.611 0 0 1 6.724-3.988h1.369l.36.36a7.11 7.11 0 0 0 3.836 1.993v5.021a6.155 6.155 0 0 1-6.145 6.144Zm-2.458 2.089a8.52 8.52 0 0 0 4.916 0v1.598a2.455 2.455 0 0 1-2.458 2.457 2.458 2.458 0 0 1-2.458-2.457v-1.598ZM61.863 62.362h61.444v26.07a13.497 13.497 0 0 0-17.945 5.414 13.497 13.497 0 0 0-1.718 6.612v3.686a2.457 2.457 0 0 1-1.736 2.335l-2.179-3.051c-.013-.02-.034-.028-.049-.047l.009-.007-4.256-5.319a4.324 4.324 0 0 0-5.079-1.284l-3.58-4.655a14.63 14.63 0 1 0-2.231 1.132l3.909 5.083a4.353 4.353 0 0 0-.161 4.732l2.123 3.539H61.862v-44.24Zm29.001 36.92a1.903 1.903 0 0 1 2.656.31l3.378 4.222-3.886 2.335-2.614-4.352a1.928 1.928 0 0 1-.271-1.016 1.888 1.888 0 0 1 .737-1.5Zm-7.884-8.074a12.206 12.206 0 0 1-11.675-2.132l8.27-8.28h11.718a12.297 12.297 0 0 1-6.022 9.362l-4.002-5.196-1.947 1.499 3.658 4.747Zm-2.684-23.867a12.307 12.307 0 0 1 10.997 10.997H80.296V67.341Zm-2.458 11.717-8.28 8.28a12.278 12.278 0 0 1 8.28-19.997v11.717Zm24.103 38.801-7.535-9.688 3.982-2.389 5.485 7.679a1.228 1.228 0 0 0 1 .514h7.548a4.884 4.884 0 0 0 1.739 2.656 4.887 4.887 0 0 0 6.005 0 4.888 4.888 0 0 0 1.738-2.656h7.548a1.23 1.23 0 0 1 1.229 1.229v11.06h-24.578v-2.258a6.612 6.612 0 0 0-4.161-6.147Zm31.197 15.779h-31.951v-4.916h31.951v4.916Z" fill="#273B98"/><path d="M60.634 136.095h34.408a1.227 1.227 0 0 0 1.23-1.229v-3.686a9.812 9.812 0 0 0-3.942-7.853 7.372 7.372 0 0 0-5.89-11.808 7.373 7.373 0 0 0-5.89 11.808 9.876 9.876 0 0 0-2.712 3.104 9.876 9.876 0 0 0-2.712-3.104 7.37 7.37 0 0 0 .708-7.726 7.373 7.373 0 1 0-12.488 7.726 9.818 9.818 0 0 0-3.941 7.853v3.686a1.228 1.228 0 0 0 1.229 1.229Zm20.89-17.204a4.913 4.913 0 0 1 4.288-4.906 4.912 4.912 0 0 1 5.411 6.01 4.913 4.913 0 0 1-1.074 2.091 9.77 9.77 0 0 0-7.418 0 4.885 4.885 0 0 1-1.206-3.195Zm4.916 4.916a7.381 7.381 0 0 1 7.373 7.373v2.458H79.067v-2.458a7.381 7.381 0 0 1 7.373-7.373Zm-22.12-4.916a4.913 4.913 0 0 1 4.287-4.906 4.912 4.912 0 0 1 5.411 6.01 4.91 4.91 0 0 1-1.073 2.091 9.77 9.77 0 0 0-7.418 0 4.885 4.885 0 0 1-1.207-3.195Zm-2.457 12.289a7.374 7.374 0 1 1 14.746 0v2.458H61.863v-2.458Zm58.986-63.902h-22.12v2.458h22.12v-2.458Zm0 4.916h-22.12v2.457h22.12v-2.457Zm0 4.915h-22.12v2.458h22.12v-2.458Zm0 4.916h-22.12v2.457h22.12v-2.457Z" fill="#273B98"/><rect x="14.5" y="15" width="166" height="166" rx="83" stroke="#EAEFFF" stroke-opacity=".21" stroke-width="29"/></svg>