<svg width="195" height="196" fill="none" xmlns="http://www.w3.org/2000/svg"><rect x="14.5" y="15" width="166" height="166" rx="83" fill="#F8FAFF"/><path d="M124.167 71.333h-10.159v-2.54a1.284 1.284 0 0 0-.508-1.015l-10.159-7.62a1.25 1.25 0 0 0-.762-.253H82.262a1.27 1.27 0 0 0-1.27 1.27v10.158H70.833a1.27 1.27 0 0 0-1.27 1.27v30.476h2.54V73.873h8.889v7.62a1.25 1.25 0 0 0 .254.761l7.619 10.159a1.288 1.288 0 0 0 1.016.508h6.35v10.158h2.539V92.921h13.968a1.27 1.27 0 0 0 1.27-1.27V73.873h8.889v29.206h2.54V72.603a1.27 1.27 0 0 0-1.27-1.27ZM88.611 87.841l-5.08-6.768V64.235l5.08 5.08V87.84Zm-3.289-25.396h16.838l6.769 5.079H90.402l-5.08-5.08Zm26.146 27.936H91.151V70.064h20.317V90.38ZM61.944 67.524h2.54v-2.54h2.54v-2.54h-2.54v-2.54h-2.54v2.54h-2.54v2.54h2.54v2.54Zm71.112-5.08v-2.54h-2.54v2.54h-2.54v2.54h2.54v2.54h2.54v-2.54h2.539v-2.54h-2.539ZM81.398 126l-6.755-2.248v-1.663a6.282 6.282 0 0 0 2.54-5.041v-1.283c.264.008.523-.072.736-.228a1.254 1.254 0 0 0 .533-1.029v-1.27a7.622 7.622 0 0 0-7.619-7.619 7.622 7.622 0 0 0-7.619 7.619v1.27a1.25 1.25 0 0 0 .534 1.029c.213.156.472.236.736.228v1.283a6.366 6.366 0 0 0 1.867 4.495c.21.199.434.382.673.546v1.663L60.268 126a1.29 1.29 0 0 0-.863 1.206v7.619a1.27 1.27 0 0 0 1.27 1.27h20.317a1.27 1.27 0 0 0 1.27-1.27v-7.619a1.289 1.289 0 0 0-.864-1.206Zm-6.755-8.952a3.805 3.805 0 0 1-2.352 3.519 3.8 3.8 0 0 1-2.915 0 3.8 3.8 0 0 1-2.062-2.062 3.807 3.807 0 0 1-.29-1.457v-2.045l.927-.317.71.723c.241.237.565.37.903.369.137-.003.274-.024.406-.064l3.403-1.143 1.27.432v2.045Zm-8.864-4.305a5.081 5.081 0 0 1 8.462-3.26 5.081 5.081 0 0 1 1.646 3.26l-2.108-.711a1.27 1.27 0 0 0-.812 0l-3.06 1.028-.712-.723a1.275 1.275 0 0 0-.901-.369 1.513 1.513 0 0 0-.407.064l-2.108.711Zm3.785 20.813h-7.62v-5.436L67 126.432l2.565 2.565v4.559Zm-.165-8.305a1.16 1.16 0 0 0 .165-.584v-1.397c.418.08.843.123 1.27.127a7.03 7.03 0 0 0 1.27-.127v1.397c.001.205.058.407.164.584l-1.435 1.435-1.434-1.435Zm10.323 8.305h-7.619v-4.559l2.565-2.565 5.054 1.688v5.436ZM108.065 126l-6.755-2.248v-1.663a6.29 6.29 0 0 0 2.539-5.041v-1.283c.264.008.524-.072.737-.228a1.258 1.258 0 0 0 .533-1.029v-1.27a7.622 7.622 0 0 0-7.619-7.619 7.622 7.622 0 0 0-7.62 7.619v1.27a1.251 1.251 0 0 0 .534 1.029c.213.156.473.236.737.228v1.283a6.366 6.366 0 0 0 1.867 4.495c.21.199.434.382.672.546v1.663L86.936 126a1.29 1.29 0 0 0-.864 1.206v7.619a1.27 1.27 0 0 0 1.27 1.27h20.318a1.27 1.27 0 0 0 1.27-1.27v-7.619a1.294 1.294 0 0 0-.864-1.206Zm-6.755-8.952a3.81 3.81 0 0 1-7.62 0v-2.045l.928-.317.71.723c.24.237.565.37.902.369.138-.003.275-.024.406-.064l3.404-1.143 1.27.432v2.045Zm-8.864-4.305a5.082 5.082 0 0 1 5.054-4.572c1.26 0 2.474.468 3.408 1.312a5.086 5.086 0 0 1 1.646 3.26l-2.108-.711a1.27 1.27 0 0 0-.813 0l-3.06 1.028-.711-.723a1.274 1.274 0 0 0-.902-.369 1.513 1.513 0 0 0-.406.064l-2.108.711Zm3.784 20.813h-7.619v-5.436l5.054-1.688 2.565 2.565v4.559Zm-.165-8.305a1.16 1.16 0 0 0 .165-.584v-1.397c.419.08.844.123 1.27.127a7.028 7.028 0 0 0 1.27-.127v1.397c.002.205.059.407.165.584l-1.435 1.435-1.435-1.435Zm10.324 8.305h-7.62v-4.559l2.566-2.565 5.054 1.688v5.436ZM134.732 126l-6.756-2.248v-1.663a6.283 6.283 0 0 0 2.54-5.041v-1.283c.264.008.523-.072.736-.228a1.252 1.252 0 0 0 .534-1.029v-1.27a7.622 7.622 0 0 0-7.619-7.619 7.62 7.62 0 0 0-7.619 7.619v1.27a1.247 1.247 0 0 0 .533 1.029c.213.156.472.236.737.228v1.283a6.361 6.361 0 0 0 1.866 4.495c.21.199.435.382.673.546v1.663L113.601 126a1.288 1.288 0 0 0-.863 1.206v7.619a1.27 1.27 0 0 0 1.27 1.27h20.317a1.27 1.27 0 0 0 1.27-1.27v-7.619a1.293 1.293 0 0 0-.24-.74 1.296 1.296 0 0 0-.623-.466Zm-6.756-8.952c0 1.01-.401 1.979-1.116 2.693a3.805 3.805 0 0 1-5.387 0 3.81 3.81 0 0 1-1.116-2.693v-2.045l.927-.317.711.723c.24.237.564.37.902.369a1.51 1.51 0 0 0 .406-.064l3.403-1.143 1.27.432v2.045Zm-8.863-4.305a5.081 5.081 0 0 1 5.054-4.572 5.076 5.076 0 0 1 5.053 4.572l-2.107-.711a1.271 1.271 0 0 0-.813 0l-3.061 1.028-.71-.723a1.276 1.276 0 0 0-.902-.369 1.517 1.517 0 0 0-.407.064l-2.107.711Zm3.784 20.813h-7.619v-5.436l5.054-1.688 2.565 2.565v4.559Zm-.165-8.305a1.16 1.16 0 0 0 .165-.584v-1.397c.418.08.843.123 1.27.127a7.038 7.038 0 0 0 1.27-.127v1.397c.002.205.059.407.164.584l-1.434 1.435-1.435-1.435Zm10.324 8.305h-7.619v-4.559l2.564-2.565 5.055 1.688v5.436Z" fill="#273B98"/><rect x="14.5" y="15" width="166" height="166" rx="83" stroke="#EAEFFF" stroke-opacity=".21" stroke-width="29"/></svg>