<svg width="100%" viewBox="0 0 196 196"  fill="none" xmlns="http://www.w3.org/2000/svg"><rect x="15" y="15" width="166" height="166" rx="83" fill="#F8FAFF"/><path d="M132.571 94.977a11.955 11.955 0 0 0-8.507-3.523h-1.131c.011-.298.017-.594.017-.886 0-13.757-11.193-24.949-24.95-24.949-11.03 0-20.745 7.263-23.895 17.757-1.599.19-3.149.617-4.617 1.271a1.116 1.116 0 1 0 .908 2.04 13.77 13.77 0 0 1 4.652-1.159 1.116 1.116 0 0 0 1-.826C78.694 74.781 87.72 67.852 98 67.852c12.526 0 22.717 10.19 22.717 22.716 0 .624-.027 1.266-.081 1.91a1.118 1.118 0 0 0 1.113 1.209h2.315a9.738 9.738 0 0 1 6.929 2.868 9.739 9.739 0 0 1 2.87 6.93c0 5.404-4.396 9.801-9.799 9.801h-7.936c.033-.453.051-.909.051-1.37 0-7.632-4.728-14.18-11.408-16.87v-5.307l2.896-2.896a4.273 4.273 0 0 0 2.145.575c2.371 0 4.3-1.929 4.3-4.3 0-2.37-1.929-4.3-4.3-4.3a4.305 4.305 0 0 0-4.3 4.3c0 .782.211 1.514.576 2.147l-3.223 3.223c-.209.21-.327.493-.327.79v5.032a18.083 18.083 0 0 0-3.422-.538v-11.5a4.308 4.308 0 0 0 3.184-4.151c0-2.371-1.929-4.3-4.3-4.3a4.305 4.305 0 0 0-4.3 4.3 4.307 4.307 0 0 0 3.184 4.152v11.5a18.093 18.093 0 0 0-3.423.537v-5.033c0-.296-.117-.58-.327-.79l-3.223-3.222a4.272 4.272 0 0 0 .577-2.147c0-2.371-1.93-4.3-4.3-4.3a4.305 4.305 0 0 0-4.3 4.3c0 2.37 1.929 4.3 4.3 4.3.78 0 1.512-.21 2.144-.576l2.897 2.897v5.306c-6.68 2.691-11.409 9.239-11.409 16.871 0 .461.018.917.052 1.37h-3.84a13.805 13.805 0 0 1-9.826-4.071 13.806 13.806 0 0 1-4.07-9.825 13.89 13.89 0 0 1 4.783-10.488 1.116 1.116 0 0 0-1.463-1.685 16.12 16.12 0 0 0-5.551 12.173c0 4.307 1.677 8.356 4.723 11.404a16.025 16.025 0 0 0 11.405 4.724h4.147c1.676 8.304 9.029 14.577 17.82 14.577s16.144-6.273 17.82-14.577h8.244c6.634 0 12.031-5.398 12.031-12.033 0-3.213-1.251-6.234-3.524-8.508ZM109.812 81.05a2.07 2.07 0 0 1 2.068 2.068 2.07 2.07 0 0 1-2.068 2.068 2.07 2.07 0 0 1-2.068-2.068 2.07 2.07 0 0 1 2.068-2.067ZM84.12 83.118a2.07 2.07 0 0 1 2.068-2.068 2.07 2.07 0 0 1 2.068 2.068 2.07 2.07 0 0 1-2.068 2.068 2.07 2.07 0 0 1-2.068-2.068Zm11.812-4.997A2.07 2.07 0 0 1 98 76.053a2.07 2.07 0 0 1 2.068 2.068A2.07 2.07 0 0 1 98 80.189a2.07 2.07 0 0 1-2.068-2.068ZM98 127.863c-8.793 0-15.947-7.154-15.947-15.947S89.207 95.969 98 95.969s15.947 7.154 15.947 15.947-7.154 15.947-15.947 15.947Z" fill="#273B98"/><path d="M98 98.124c-7.605 0-13.792 6.187-13.792 13.793 0 7.604 6.187 13.792 13.792 13.792 2.744 0 5.397-.806 7.67-2.329a1.117 1.117 0 0 0-1.242-1.855A11.512 11.512 0 0 1 98 123.476c-6.374 0-11.56-5.186-11.56-11.559 0-6.375 5.186-11.561 11.56-11.561 6.374 0 11.56 5.186 11.56 11.561 0 2.473-.77 4.831-2.227 6.82a1.115 1.115 0 1 0 1.801 1.318 13.686 13.686 0 0 0 2.657-8.138c.001-7.606-6.186-13.793-13.791-13.793Z" fill="#273B98"/><path d="M99.319 121.456c.616 0 1.116-.5 1.116-1.117v-1.712h.017a4.228 4.228 0 0 0 4.223-4.223 4.227 4.227 0 0 0-2.267-3.741 3.576 3.576 0 0 0 .515-1.854 3.61 3.61 0 0 0-2.488-3.426v-1.89a1.116 1.116 0 1 0-2.232 0v1.712h-1.045v-1.712a1.117 1.117 0 1 0-2.232 0v1.712H92.83a1.116 1.116 0 0 0 0 2.232h.822v8.958h-.822a1.116 1.116 0 0 0 0 2.232h2.096v1.712a1.116 1.116 0 1 0 2.232 0v-1.712h1.045v1.712c0 .617.5 1.117 1.116 1.117Zm1.133-5.061h-4.568v-3.982h4.568c1.097 0 1.991.893 1.991 1.991a1.993 1.993 0 0 1-1.991 1.991Zm-1.133-6.214h-3.435v-2.744h3.435c.756 0 1.372.616 1.372 1.372 0 .756-.616 1.372-1.372 1.372Z" fill="#273B98"/><rect x="15" y="15" width="166" height="166" rx="83" stroke="#EAEFFF" stroke-opacity=".21" stroke-width="29"/></svg>