<svg width="100%" viewBox="0 0 196 196"  fill="none" xmlns="http://www.w3.org/2000/svg"><rect x="15" y="15" width="166" height="166" rx="83" fill="#F8FAFF"/><path d="M119.586 93.1V73.42h2.489a2.56 2.56 0 0 0 2.352-1.524 2.603 2.603 0 0 0-.396-2.813l-7.581-8.73a2.628 2.628 0 0 0-3.879-.006l-7.587 8.736a2.603 2.603 0 0 0-.396 2.813 2.558 2.558 0 0 0 2.351 1.524h2.489V93.1c-10.625 2.573-17.65 12.683-16.355 23.539 1.295 10.855 10.502 19.029 21.434 19.029 10.933 0 20.139-8.174 21.435-19.029 1.295-10.856-5.73-20.966-16.356-23.539Zm-8.888-22.22h-3.778l-.012-.128 7.618-8.737 7.581 8.737-.032.127h-3.758a1.27 1.27 0 0 0-1.27 1.27v20.48a19.921 19.921 0 0 0-5.079 0v-20.48a1.27 1.27 0 0 0-1.27-1.27Zm3.809 62.219c-10.519 0-19.047-8.528-19.047-19.047s8.528-19.047 19.047-19.047c10.52 0 19.047 8.528 19.047 19.047-.012 10.514-8.533 19.035-19.047 19.047Z" fill="#273B98"/><path d="M76.414 101.995v19.675h-2.49a2.56 2.56 0 0 0-2.35 1.524 2.604 2.604 0 0 0 .395 2.813l7.58 8.73a2.537 2.537 0 0 0 3.88.006l7.582-8.736c.68-.776.838-1.881.401-2.817a2.56 2.56 0 0 0-2.351-1.52h-2.489v-19.675c10.626-2.572 17.65-12.682 16.355-23.538-1.295-10.855-10.502-19.028-21.434-19.028-10.933 0-20.14 8.173-21.435 19.028-1.295 10.856 5.73 20.966 16.356 23.538Zm8.888 22.215h3.778l.013.127-7.62 8.738-7.58-8.738.032-.127h3.758a1.27 1.27 0 0 0 1.27-1.27v-20.479c.843.104 1.69.158 2.54.163a21.783 21.783 0 0 0 2.54-.163v20.479c0 .702.568 1.27 1.27 1.27Zm-3.81-62.22c10.52 0 19.048 8.528 19.048 19.047 0 10.52-8.528 19.047-19.047 19.047-10.52 0-19.047-8.527-19.047-19.047.012-10.514 8.532-19.034 19.047-19.046Z" fill="#273B98"/><path d="M76.414 86.117a1.27 1.27 0 1 0-2.54 0c0 3.138 2.752 5.747 6.35 6.253v2.635a1.27 1.27 0 0 0 2.539 0V92.37c3.597-.507 6.349-3.114 6.349-6.253 0-3.14-2.752-5.747-6.35-6.254v-7.578c2.185.425 3.81 1.905 3.81 3.673a1.27 1.27 0 1 0 2.54 0c0-3.138-2.752-5.747-6.35-6.253V67.07a1.27 1.27 0 1 0-2.539 0v2.635c-3.597.508-6.349 3.114-6.349 6.253 0 3.14 2.752 5.748 6.349 6.254v7.578c-2.184-.425-3.81-1.903-3.81-3.673Zm10.158 0c0 1.77-1.626 3.248-3.81 3.673v-7.347c2.185.426 3.81 1.904 3.81 3.674ZM76.414 75.958c0-1.77 1.625-3.248 3.809-3.673v7.347c-2.184-.425-3.81-1.904-3.81-3.674Zm38.093 29.206a7.183 7.183 0 0 1 5.891 3.263 1.271 1.271 0 1 0 2.085-1.448 9.68 9.68 0 0 0-7.976-4.355 10.326 10.326 0 0 0-9.565 7.619h-3.133a1.269 1.269 0 1 0 0 2.539h2.606c-.041.418-.066.841-.066 1.27 0 .429.025.852.066 1.27h-2.606a1.269 1.269 0 1 0 0 2.539h3.133a10.326 10.326 0 0 0 9.565 7.619 9.683 9.683 0 0 0 7.976-4.355 1.272 1.272 0 0 0-.927-2.025 1.271 1.271 0 0 0-1.158.577 7.183 7.183 0 0 1-5.891 3.263 7.634 7.634 0 0 1-6.873-5.079h6.873a1.27 1.27 0 1 0 0-2.539h-7.532a9.393 9.393 0 0 1 0-2.54h7.532a1.27 1.27 0 1 0 0-2.539h-6.873a7.634 7.634 0 0 1 6.873-5.079Z" fill="#273B98"/><rect x="15" y="15" width="166" height="166" rx="83" stroke="#EAEFFF" stroke-opacity=".21" stroke-width="29"/></svg>