<svg width="688" height="421" viewBox="0 0 688 421" fill="none" xmlns="http://www.w3.org/2000/svg">
<rect y="0.822021" width="688" height="420" rx="25" fill="url(#paint0_linear_509_178)"/>
<path d="M369 44.5H687.5V203.5H369C355.469 203.5 344.5 192.531 344.5 179V69C344.5 55.469 355.469 44.5 369 44.5Z" fill="white" stroke="#EAEFFF"/>
<path d="M444.362 176.059V164.55H448.111V160.8H401.247C400.75 160.8 400.273 160.603 399.922 160.251C399.57 159.9 399.373 159.423 399.373 158.926V85.8184H485.602V100.815H489.351V85.8184H493.1C493.597 85.8184 494.074 85.6209 494.426 85.2694C494.777 84.9178 494.975 84.441 494.975 83.9439V76.4457C494.975 74.9542 494.382 73.5238 493.328 72.4692C492.273 71.4145 490.843 70.822 489.351 70.822H395.624C394.132 70.822 392.702 71.4145 391.647 72.4692C390.592 73.5238 390 74.9542 390 76.4457V83.9439C390 84.441 390.197 84.9178 390.549 85.2694C390.901 85.6209 391.377 85.8184 391.875 85.8184H395.624V158.926C395.624 160.417 396.216 161.848 397.271 162.902C398.325 163.957 399.756 164.55 401.247 164.55H440.613V176.059C438.846 176.516 437.306 177.601 436.282 179.111C435.257 180.622 434.819 182.454 435.049 184.264C435.279 186.075 436.161 187.739 437.531 188.946C438.9 190.152 440.662 190.818 442.487 190.818C444.312 190.818 446.075 190.152 447.444 188.946C448.814 187.739 449.696 186.075 449.926 184.264C450.156 182.454 449.718 180.622 448.693 179.111C447.669 177.601 446.129 176.516 444.362 176.059ZM393.749 76.4457C393.749 75.9485 393.947 75.4717 394.298 75.1202C394.65 74.7686 395.126 74.5711 395.624 74.5711H489.351C489.848 74.5711 490.325 74.7686 490.677 75.1202C491.028 75.4717 491.226 75.9485 491.226 76.4457V82.0693H393.749V76.4457ZM442.487 187.044C441.746 187.044 441.021 186.824 440.405 186.412C439.788 186 439.307 185.415 439.024 184.73C438.74 184.045 438.666 183.291 438.81 182.564C438.955 181.836 439.312 181.168 439.836 180.644C440.361 180.12 441.029 179.763 441.756 179.618C442.483 179.473 443.237 179.548 443.922 179.831C444.607 180.115 445.193 180.596 445.605 181.212C446.017 181.829 446.237 182.554 446.237 183.295C446.237 184.289 445.842 185.243 445.138 185.946C444.435 186.649 443.482 187.044 442.487 187.044Z" fill="url(#paint1_linear_509_178)"/>
<path d="M476.229 104.564C469.764 104.562 463.436 106.431 458.009 109.944L443.8 95.7348C443.45 95.3885 442.979 95.1932 442.487 95.1912H406.871V98.9403H441.719L454.934 112.156C448.77 117.183 444.579 124.226 443.103 132.042C441.626 139.858 442.958 147.945 446.864 154.874C450.77 161.804 456.998 167.13 464.45 169.914C471.901 172.698 480.096 172.759 487.589 170.088C495.081 167.417 501.389 162.185 505.399 155.315C509.409 148.445 510.863 140.38 509.504 132.542C508.145 124.705 504.061 117.599 497.973 112.48C491.885 107.361 484.184 104.557 476.229 104.564ZM478.104 108.407C484.753 108.832 491.069 111.472 496.043 115.905L478.104 133.788V108.407ZM446.237 138.306C446.245 130.682 449.157 123.347 454.381 117.793C459.604 112.24 466.746 108.883 474.355 108.407V138.306C474.353 138.553 474.401 138.797 474.494 139.025C474.587 139.254 474.725 139.462 474.898 139.637L496.043 160.8C491.714 164.611 486.377 167.092 480.673 167.946C474.97 168.801 469.14 167.993 463.884 165.619C458.628 163.245 454.168 159.406 451.038 154.561C447.908 149.717 446.241 144.073 446.237 138.306ZM498.724 158.12L478.872 138.306L498.724 118.492C503.58 123.949 506.264 131 506.264 138.306C506.264 145.611 503.58 152.662 498.724 158.12Z" fill="url(#paint2_linear_509_178)"/>
<path d="M436.864 104.564C436.864 104.067 436.666 103.59 436.315 103.238C435.963 102.887 435.486 102.689 434.989 102.689H408.746C408.248 102.689 407.772 102.887 407.42 103.238C407.068 103.59 406.871 104.067 406.871 104.564V115.811C406.871 116.308 407.068 116.785 407.42 117.137C407.772 117.488 408.248 117.686 408.746 117.686H434.989C435.486 117.686 435.963 117.488 436.315 117.137C436.666 116.785 436.864 116.308 436.864 115.811V104.564ZM433.115 113.937H410.62V106.439H433.115V113.937Z" fill="url(#paint3_linear_509_178)"/>
<path d="M436.864 123.31C436.864 122.812 436.666 122.336 436.315 121.984C435.963 121.633 435.486 121.435 434.989 121.435H408.746C408.248 121.435 407.772 121.633 407.42 121.984C407.068 122.336 406.871 122.812 406.871 123.31V134.557C406.871 135.054 407.068 135.531 407.42 135.882C407.772 136.234 408.248 136.431 408.746 136.431H434.989C435.486 136.431 435.963 136.234 436.315 135.882C436.666 135.531 436.864 135.054 436.864 134.557V123.31ZM433.115 132.682H410.62V125.184H433.115V132.682Z" fill="url(#paint4_linear_509_178)"/>
<path d="M434.989 140.18H408.746C408.248 140.18 407.772 140.378 407.42 140.729C407.068 141.081 406.871 141.558 406.871 142.055V153.302C406.871 153.799 407.068 154.276 407.42 154.628C407.772 154.979 408.248 155.177 408.746 155.177H434.989C435.486 155.177 435.963 154.979 436.315 154.628C436.666 154.276 436.864 153.799 436.864 153.302V142.055C436.864 141.558 436.666 141.081 436.315 140.729C435.963 140.378 435.486 140.18 434.989 140.18ZM433.115 151.428H410.62V143.93H433.115V151.428Z" fill="url(#paint5_linear_509_178)"/>
<path d="M481.853 89.5674H478.104V93.3165H481.853V89.5674Z" fill="url(#paint6_linear_509_178)"/>
<path d="M474.355 89.5674H470.606V93.3165H474.355V89.5674Z" fill="url(#paint7_linear_509_178)"/>
<path d="M481.853 97.0659H478.104V100.815H481.853V97.0659Z" fill="url(#paint8_linear_509_178)"/>
<path d="M551.763 123.822L546.606 107.02H546.475C546.494 107.421 546.523 108.026 546.562 108.837C546.611 109.637 546.655 110.492 546.694 111.4C546.733 112.308 546.753 113.129 546.753 113.861V123.822H542.695V102.406H548.877L553.945 118.783H554.033L559.409 102.406H565.591V123.822H561.357V113.685C561.357 113.011 561.367 112.235 561.387 111.356C561.416 110.477 561.45 109.642 561.489 108.851C561.528 108.051 561.558 107.45 561.577 107.05H561.445L555.923 123.822H551.763ZM585.527 115.604C585.527 116.971 585.342 118.182 584.971 119.237C584.609 120.292 584.077 121.185 583.374 121.918C582.681 122.64 581.841 123.187 580.854 123.558C579.878 123.929 578.774 124.115 577.544 124.115C576.392 124.115 575.332 123.929 574.365 123.558C573.408 123.187 572.573 122.64 571.86 121.918C571.157 121.185 570.61 120.292 570.22 119.237C569.839 118.182 569.648 116.971 569.648 115.604C569.648 113.788 569.971 112.25 570.615 110.99C571.26 109.73 572.178 108.773 573.369 108.119C574.561 107.465 575.981 107.137 577.632 107.137C579.165 107.137 580.522 107.465 581.704 108.119C582.896 108.773 583.828 109.73 584.502 110.99C585.186 112.25 585.527 113.788 585.527 115.604ZM574.204 115.604C574.204 116.678 574.321 117.582 574.556 118.314C574.79 119.047 575.156 119.598 575.654 119.969C576.152 120.341 576.802 120.526 577.603 120.526C578.394 120.526 579.033 120.341 579.521 119.969C580.02 119.598 580.381 119.047 580.605 118.314C580.84 117.582 580.957 116.678 580.957 115.604C580.957 114.52 580.84 113.622 580.605 112.909C580.381 112.186 580.02 111.644 579.521 111.283C579.023 110.922 578.374 110.741 577.573 110.741C576.392 110.741 575.532 111.146 574.995 111.957C574.468 112.767 574.204 113.983 574.204 115.604ZM598.359 107.137C598.584 107.137 598.843 107.152 599.136 107.181C599.438 107.201 599.683 107.23 599.868 107.269L599.531 111.459C599.385 111.41 599.175 111.376 598.901 111.356C598.638 111.327 598.408 111.312 598.213 111.312C597.637 111.312 597.075 111.385 596.528 111.532C595.991 111.678 595.508 111.918 595.078 112.25C594.648 112.572 594.307 113.002 594.053 113.539C593.809 114.066 593.687 114.716 593.687 115.487V123.822H589.219V107.445H592.603L593.262 110.199H593.481C593.804 109.642 594.204 109.135 594.683 108.676C595.171 108.207 595.723 107.836 596.338 107.562C596.963 107.279 597.637 107.137 598.359 107.137ZM609.595 107.137C611.108 107.137 612.412 107.43 613.506 108.016C614.6 108.593 615.444 109.432 616.04 110.536C616.636 111.639 616.934 112.987 616.934 114.579V116.747H606.372C606.421 118.007 606.797 118.998 607.5 119.72C608.213 120.433 609.199 120.79 610.459 120.79C611.504 120.79 612.461 120.682 613.33 120.468C614.199 120.253 615.093 119.93 616.011 119.501V122.958C615.2 123.358 614.351 123.651 613.462 123.837C612.583 124.022 611.514 124.115 610.254 124.115C608.613 124.115 607.158 123.812 605.889 123.207C604.629 122.601 603.638 121.678 602.915 120.438C602.202 119.198 601.846 117.635 601.846 115.751C601.846 113.837 602.168 112.245 602.812 110.975C603.467 109.696 604.375 108.739 605.537 108.104C606.699 107.46 608.052 107.137 609.595 107.137ZM609.624 110.316C608.755 110.316 608.032 110.594 607.456 111.151C606.89 111.708 606.562 112.582 606.475 113.773H612.744C612.734 113.109 612.612 112.518 612.378 112.001C612.153 111.483 611.812 111.073 611.353 110.77C610.903 110.468 610.327 110.316 609.624 110.316Z" fill="#333333"/>
<path d="M543.357 162.998C542.719 162.998 542.159 162.951 541.679 162.857C541.198 162.763 540.753 162.62 540.343 162.427V160.959C540.712 161.146 541.146 161.319 541.644 161.477C542.142 161.63 542.719 161.706 543.375 161.706C543.779 161.706 544.166 161.659 544.535 161.565C544.904 161.471 545.232 161.325 545.52 161.126C545.812 160.927 546.041 160.672 546.205 160.361C546.375 160.051 546.46 159.681 546.46 159.254C546.46 158.908 546.384 158.603 546.231 158.34C546.085 158.07 545.851 157.812 545.528 157.566C545.206 157.314 544.784 157.045 544.263 156.758C543.817 156.494 543.416 156.219 543.059 155.931C542.707 155.638 542.429 155.299 542.224 154.912C542.019 154.519 541.916 154.045 541.916 153.488C541.916 152.89 542.027 152.363 542.25 151.906C542.473 151.443 542.777 151.056 543.164 150.746C543.557 150.429 544.005 150.192 544.509 150.034C545.019 149.87 545.558 149.788 546.126 149.788C546.8 149.788 547.386 149.855 547.884 149.99C548.382 150.125 548.862 150.306 549.325 150.535L548.754 151.801C548.426 151.625 548.03 151.467 547.567 151.326C547.11 151.179 546.63 151.106 546.126 151.106C545.757 151.106 545.411 151.156 545.089 151.256C544.772 151.349 544.494 151.493 544.254 151.686C544.014 151.88 543.826 152.12 543.691 152.407C543.557 152.688 543.489 153.016 543.489 153.391C543.489 153.772 543.56 154.089 543.7 154.341C543.847 154.593 544.058 154.821 544.333 155.026C544.614 155.231 544.96 155.454 545.37 155.694C545.892 155.999 546.352 156.303 546.75 156.608C547.148 156.907 547.459 157.256 547.682 157.654C547.904 158.047 548.016 158.542 548.016 159.139C548.016 159.784 547.901 160.349 547.673 160.836C547.45 161.316 547.131 161.718 546.715 162.04C546.299 162.356 545.807 162.596 545.238 162.76C544.67 162.919 544.043 162.998 543.357 162.998ZM552.322 162.998C551.684 162.998 551.15 162.845 550.723 162.541C550.301 162.23 550.09 161.7 550.09 160.95C550.09 160.768 550.102 160.572 550.125 160.361C550.148 160.144 550.187 159.922 550.239 159.693L551.373 154.305H549.888L550.028 153.629L551.628 153.013L552.683 150.974H553.553L553.069 153.189H555.548L555.319 154.305H552.85L551.707 159.711C551.666 159.875 551.628 160.051 551.593 160.238C551.563 160.426 551.549 160.604 551.549 160.774C551.549 161.067 551.625 161.313 551.777 161.512C551.93 161.706 552.185 161.802 552.542 161.802C552.765 161.802 552.976 161.782 553.175 161.741C553.38 161.7 553.597 161.641 553.825 161.565V162.69C553.679 162.76 553.456 162.828 553.157 162.892C552.864 162.963 552.586 162.998 552.322 162.998ZM558.492 162.998C557.971 162.998 557.514 162.872 557.121 162.62C556.729 162.368 556.424 161.996 556.207 161.504C555.99 161.011 555.882 160.411 555.882 159.702C555.882 158.993 555.955 158.31 556.102 157.654C556.254 156.998 556.468 156.388 556.743 155.826C557.019 155.263 557.35 154.771 557.736 154.349C558.129 153.927 558.568 153.599 559.055 153.365C559.541 153.131 560.065 153.013 560.628 153.013C561.062 153.013 561.437 153.095 561.753 153.26C562.075 153.424 562.342 153.64 562.553 153.91C562.77 154.174 562.939 154.455 563.062 154.754H563.15L563.713 153.189H564.829L562.79 162.822H561.621L561.885 160.959H561.814C561.551 161.31 561.249 161.641 560.909 161.952C560.569 162.262 560.197 162.514 559.793 162.708C559.389 162.901 558.955 162.998 558.492 162.998ZM558.967 161.785C559.418 161.785 559.863 161.621 560.303 161.293C560.748 160.959 561.146 160.51 561.498 159.948C561.855 159.38 562.128 158.741 562.315 158.032C562.409 157.686 562.471 157.37 562.5 157.083C562.535 156.79 562.553 156.517 562.553 156.265C562.553 155.662 562.392 155.176 562.069 154.806C561.753 154.431 561.319 154.244 560.769 154.244C560.376 154.244 560.007 154.344 559.661 154.543C559.315 154.736 559.002 155.009 558.721 155.36C558.445 155.706 558.208 156.11 558.009 156.573C557.81 157.03 557.654 157.528 557.543 158.067C557.438 158.606 557.385 159.16 557.385 159.728C557.385 160.402 557.522 160.915 557.798 161.266C558.073 161.612 558.463 161.785 558.967 161.785ZM564.68 167.155C564.393 167.155 564.161 167.137 563.985 167.102C563.804 167.067 563.628 167.023 563.458 166.97V165.784C563.616 165.825 563.792 165.86 563.985 165.889C564.179 165.925 564.384 165.942 564.601 165.942C565.081 165.942 565.494 165.79 565.84 165.485C566.186 165.18 566.522 164.732 566.851 164.14L567.527 162.936L566.051 153.189H567.527L568.195 158.137C568.254 158.524 568.301 158.94 568.336 159.385C568.371 159.825 568.397 160.244 568.415 160.642C568.433 161.035 568.441 161.354 568.441 161.6H568.494C568.576 161.407 568.699 161.129 568.863 160.765C569.027 160.396 569.203 160.012 569.391 159.614C569.578 159.216 569.745 158.882 569.892 158.612L572.783 153.189H574.348L568.178 164.492C567.861 165.078 567.536 165.567 567.202 165.96C566.874 166.358 566.508 166.657 566.104 166.856C565.699 167.055 565.225 167.155 564.68 167.155ZM581.414 162.998C580.775 162.998 580.242 162.845 579.814 162.541C579.393 162.23 579.182 161.7 579.182 160.95C579.182 160.768 579.193 160.572 579.217 160.361C579.24 160.144 579.278 159.922 579.331 159.693L580.465 154.305H578.979L579.12 153.629L580.72 153.013L581.774 150.974H582.645L582.161 153.189H584.64L584.411 154.305H581.941L580.799 159.711C580.758 159.875 580.72 160.051 580.685 160.238C580.655 160.426 580.641 160.604 580.641 160.774C580.641 161.067 580.717 161.313 580.869 161.512C581.021 161.706 581.276 161.802 581.634 161.802C581.856 161.802 582.067 161.782 582.267 161.741C582.472 161.7 582.688 161.641 582.917 161.565V162.69C582.771 162.76 582.548 162.828 582.249 162.892C581.956 162.963 581.678 162.998 581.414 162.998ZM587.505 162.998C587.019 162.998 586.594 162.907 586.23 162.725C585.867 162.544 585.586 162.277 585.387 161.926C585.193 161.568 585.097 161.132 585.097 160.616C585.097 160.358 585.114 160.109 585.149 159.869C585.19 159.623 585.234 159.368 585.281 159.104L586.556 153.189H588.032L586.723 159.271C586.676 159.523 586.638 159.749 586.608 159.948C586.585 160.141 586.573 160.314 586.573 160.467C586.573 160.883 586.679 161.208 586.89 161.442C587.106 161.671 587.449 161.785 587.918 161.785C588.357 161.785 588.817 161.635 589.298 161.337C589.784 161.038 590.232 160.569 590.643 159.93C591.059 159.286 591.375 158.451 591.592 157.426L592.488 153.189H593.93L591.891 162.822H590.687L590.924 160.959H590.845C590.622 161.263 590.353 161.574 590.036 161.89C589.72 162.201 589.354 162.465 588.938 162.681C588.521 162.892 588.044 162.998 587.505 162.998ZM594.923 162.822L596.988 153.145H598.28L598.052 155H598.069C598.292 154.695 598.559 154.387 598.869 154.077C599.186 153.76 599.552 153.497 599.968 153.286C600.39 153.069 600.867 152.961 601.4 152.961C601.916 152.961 602.358 153.057 602.728 153.251C603.097 153.438 603.381 153.714 603.58 154.077C603.779 154.434 603.879 154.868 603.879 155.378C603.879 155.647 603.858 155.92 603.817 156.195C603.776 156.47 603.732 156.717 603.686 156.933L602.402 162.822H600.847L602.147 156.74C602.2 156.476 602.241 156.251 602.271 156.063C602.306 155.876 602.323 155.7 602.323 155.536C602.323 155.126 602.212 154.815 601.989 154.604C601.767 154.393 601.438 154.288 601.005 154.288C600.577 154.288 600.126 154.434 599.651 154.727C599.177 155.02 598.737 155.483 598.333 156.116C597.929 156.743 597.615 157.563 597.393 158.577L596.487 162.822H594.923ZM609.214 162.998C608.493 162.998 607.872 162.854 607.351 162.567C606.829 162.274 606.428 161.858 606.146 161.319C605.871 160.774 605.733 160.124 605.733 159.368C605.733 158.589 605.845 157.824 606.067 157.074C606.296 156.318 606.621 155.635 607.043 155.026C607.465 154.411 607.972 153.922 608.563 153.558C609.161 153.195 609.829 153.013 610.567 153.013C611.452 153.013 612.123 153.213 612.58 153.611C613.037 154.004 613.266 154.546 613.266 155.237C613.266 155.723 613.151 156.172 612.923 156.582C612.7 156.992 612.354 157.349 611.886 157.654C611.423 157.953 610.834 158.187 610.119 158.357C609.41 158.521 608.569 158.603 607.597 158.603H607.263C607.251 158.709 607.239 158.826 607.228 158.955C607.222 159.084 607.219 159.204 607.219 159.315C607.219 160.089 607.406 160.695 607.781 161.135C608.156 161.568 608.719 161.785 609.469 161.785C609.932 161.785 610.368 161.72 610.778 161.592C611.194 161.457 611.628 161.281 612.079 161.064V162.321C611.646 162.52 611.209 162.684 610.77 162.813C610.33 162.936 609.812 162.998 609.214 162.998ZM607.474 157.408H607.685C608.435 157.408 609.123 157.344 609.75 157.215C610.377 157.08 610.881 156.863 611.262 156.564C611.643 156.26 611.833 155.855 611.833 155.351C611.833 155.023 611.722 154.754 611.499 154.543C611.276 154.332 610.937 154.226 610.479 154.226C610.075 154.226 609.677 154.352 609.284 154.604C608.892 154.85 608.534 155.211 608.212 155.685C607.896 156.16 607.649 156.734 607.474 157.408ZM617.3 162.998C616.772 162.998 616.312 162.875 615.92 162.629C615.527 162.383 615.223 162.016 615.006 161.53C614.789 161.038 614.681 160.428 614.681 159.702C614.681 159.01 614.751 158.34 614.892 157.689C615.032 157.033 615.234 156.424 615.498 155.861C615.768 155.299 616.096 154.806 616.482 154.385C616.869 153.957 617.309 153.626 617.801 153.391C618.299 153.151 618.844 153.031 619.436 153.031C619.887 153.031 620.273 153.113 620.596 153.277C620.918 153.441 621.185 153.655 621.396 153.919C621.612 154.177 621.782 154.455 621.905 154.754H621.993C622.028 154.484 622.063 154.223 622.099 153.971C622.134 153.714 622.175 153.453 622.222 153.189C622.274 152.926 622.333 152.653 622.397 152.372L623.074 149.146H624.524L621.624 162.822H620.42L620.657 160.959H620.596C620.314 161.322 620.007 161.659 619.673 161.969C619.345 162.28 618.984 162.529 618.592 162.717C618.199 162.904 617.769 162.998 617.3 162.998ZM617.792 161.785C618.067 161.785 618.346 161.718 618.627 161.583C618.914 161.448 619.192 161.258 619.462 161.011C619.731 160.76 619.983 160.464 620.218 160.124C620.452 159.784 620.657 159.409 620.833 158.999C621.015 158.589 621.155 158.155 621.255 157.698C621.354 157.241 621.404 156.769 621.404 156.283C621.404 155.662 621.255 155.167 620.956 154.798C620.657 154.428 620.18 154.244 619.523 154.244C619.119 154.244 618.744 154.346 618.398 154.552C618.059 154.757 617.751 155.038 617.476 155.395C617.2 155.753 616.966 156.166 616.772 156.635C616.585 157.097 616.438 157.595 616.333 158.129C616.233 158.656 616.184 159.189 616.184 159.728C616.184 160.402 616.318 160.915 616.588 161.266C616.857 161.612 617.259 161.785 617.792 161.785ZM625.605 159.254L627.284 149.972H629.06L626.792 159.254H625.605ZM625.5 163.068C625.213 163.068 624.99 162.986 624.832 162.822C624.68 162.664 624.604 162.441 624.604 162.154C624.604 161.797 624.703 161.477 624.902 161.196C625.107 160.915 625.43 160.774 625.869 160.774C626.127 160.774 626.332 160.853 626.484 161.011C626.643 161.17 626.722 161.395 626.722 161.688C626.722 162.016 626.622 162.33 626.423 162.629C626.224 162.922 625.916 163.068 625.5 163.068Z" fill="#333333"/>
<path d="M70 118.822C70 116.061 72.2386 113.822 75 113.822H125C127.761 113.822 130 116.061 130 118.822V420.822H70V118.822Z" fill="#F8FAFF"/>
<path d="M160 65.822C160 63.0606 162.239 60.822 165 60.822H215C217.761 60.822 220 63.0606 220 65.822V420.822H160V65.822Z" fill="#F8FAFF"/>
<path d="M250 277.822C250 275.061 252.239 272.822 255 272.822H305C307.761 272.822 310 275.061 310 277.822V420.822H250V277.822Z" fill="#F8FAFF"/>
<path d="M340 277.822C340 275.061 342.239 272.822 345 272.822H395C397.761 272.822 400 275.061 400 277.822V420.822H340V277.822Z" fill="#F8FAFF"/>
<path d="M430 235.822C430 233.061 432.239 230.822 435 230.822H485C487.761 230.822 490 233.061 490 235.822V420.822H430V235.822Z" fill="#F8FAFF"/>
<path d="M520 318.822C520 316.061 522.239 313.822 525 313.822H575C577.761 313.822 580 316.061 580 318.822V420.822H520V318.822Z" fill="#F8FAFF"/>
<path d="M610 275.822C610 273.061 612.239 270.822 615 270.822H665C667.761 270.822 670 273.061 670 275.822V420.822H610V275.822Z" fill="#F8FAFF"/>
<path d="M60 128.822C60 126.061 62.2386 123.822 65 123.822H115C117.761 123.822 120 126.061 120 128.822V420.822H60V128.822Z" fill="#EAEFFF"/>
<path d="M150 75.822C150 73.0606 152.239 70.822 155 70.822H205C207.761 70.822 210 73.0606 210 75.822V420.822H150V75.822Z" fill="#EAEFFF"/>
<path d="M240 285.822C240 283.061 242.239 280.822 245 280.822H295C297.761 280.822 300 283.061 300 285.822V420.822H240V285.822Z" fill="#EAEFFF"/>
<path d="M330 285.822C330 283.061 332.239 280.822 335 280.822H385C387.761 280.822 390 283.061 390 285.822V420.822H330V285.822Z" fill="#EAEFFF"/>
<path d="M420 245.822C420 243.061 422.239 240.822 425 240.822H475C477.761 240.822 480 243.061 480 245.822V420.822H420V245.822Z" fill="#EAEFFF"/>
<path d="M510 325.822C510 323.061 512.239 320.822 515 320.822H565C567.761 320.822 570 323.061 570 325.822V420.822H510V325.822Z" fill="#EAEFFF"/>
<path d="M600 285.822C600 283.061 602.239 280.822 605 280.822H655C657.761 280.822 660 283.061 660 285.822V420.822H600V285.822Z" fill="#EAEFFF"/>
<path d="M30.377 383.718C31.2064 383.718 31.8649 383.957 32.3525 384.435C32.8447 384.909 33.0908 385.552 33.0908 386.363C33.0908 387.097 32.9245 387.742 32.5918 388.298C32.2591 388.854 31.7943 389.271 31.1973 389.549C30.6003 389.822 29.8984 389.959 29.0918 389.959C28.2122 389.959 27.4603 389.779 26.8359 389.419V388.298C27.5833 388.762 28.3444 388.995 29.1191 388.995C29.9896 388.995 30.6686 388.776 31.1562 388.339C31.6439 387.901 31.8877 387.29 31.8877 386.507C31.8877 385.932 31.7191 385.479 31.3818 385.146C31.0492 384.809 30.5843 384.64 29.9873 384.64C29.7686 384.64 29.5475 384.656 29.3242 384.688C29.1009 384.716 28.7842 384.784 28.374 384.893L27.8682 384.504L29.2148 379.828H33.7812L33.5557 380.874H29.9873L29.1191 383.875C29.5156 383.77 29.9349 383.718 30.377 383.718Z" fill="white"/>
<path d="M22.5977 331.822H21.4219L22.7617 325.581C23.0306 324.391 23.2311 323.573 23.3633 323.127C23.1354 323.368 22.8187 323.621 22.4131 323.885L21.1963 324.637L20.6494 323.769L23.7188 321.828H24.7373L22.5977 331.822ZM33.7539 324.89C33.7539 326.235 33.5739 327.463 33.2139 328.575C32.8584 329.687 32.3708 330.53 31.751 331.104C31.1357 331.674 30.4202 331.959 29.6045 331.959C28.8024 331.959 28.1872 331.669 27.7588 331.091C27.3304 330.507 27.1162 329.664 27.1162 328.561C27.1162 327.331 27.3031 326.16 27.6768 325.048C28.0505 323.931 28.5426 323.09 29.1533 322.525C29.7686 321.955 30.4704 321.671 31.2588 321.671C32.9222 321.671 33.7539 322.744 33.7539 324.89ZM31.1904 322.655C30.6755 322.655 30.1992 322.919 29.7617 323.448C29.3242 323.972 28.9688 324.708 28.6953 325.656C28.4264 326.599 28.292 327.563 28.292 328.548C28.292 329.331 28.4059 329.933 28.6338 330.352C28.8617 330.772 29.2285 330.981 29.7344 330.981C30.2585 330.981 30.7347 330.721 31.1631 330.202C31.5915 329.682 31.9333 328.935 32.1885 327.96C32.4482 326.984 32.5781 325.952 32.5781 324.863C32.5781 323.391 32.1156 322.655 31.1904 322.655Z" fill="white"/>
<path d="M22.5977 273.822H21.4219L22.7617 267.581C23.0306 266.391 23.2311 265.573 23.3633 265.127C23.1354 265.368 22.8187 265.621 22.4131 265.885L21.1963 266.637L20.6494 265.769L23.7188 263.828H24.7373L22.5977 273.822ZM30.377 267.718C31.2064 267.718 31.8649 267.957 32.3525 268.435C32.8447 268.909 33.0908 269.552 33.0908 270.363C33.0908 271.097 32.9245 271.742 32.5918 272.298C32.2591 272.854 31.7943 273.271 31.1973 273.549C30.6003 273.822 29.8984 273.959 29.0918 273.959C28.2122 273.959 27.4603 273.779 26.8359 273.419V272.298C27.5833 272.762 28.3444 272.995 29.1191 272.995C29.9896 272.995 30.6686 272.776 31.1562 272.339C31.6439 271.901 31.8877 271.29 31.8877 270.507C31.8877 269.932 31.7191 269.479 31.3818 269.146C31.0492 268.809 30.5843 268.64 29.9873 268.64C29.7686 268.64 29.5475 268.656 29.3242 268.688C29.1009 268.716 28.7842 268.784 28.374 268.893L27.8682 268.504L29.2148 263.828H33.7812L33.5557 264.874H29.9873L29.1191 267.875C29.5156 267.77 29.9349 267.718 30.377 267.718Z" fill="white"/>
<path d="M24.8057 215.822H18.6602L18.8721 214.817L22.0508 211.946C22.5156 211.522 22.9167 211.151 23.2539 210.832C23.5957 210.508 23.876 210.205 24.0947 209.923C24.318 209.635 24.4821 209.353 24.5869 209.075C24.6963 208.792 24.751 208.48 24.751 208.138C24.751 207.687 24.6143 207.33 24.3408 207.065C24.0674 206.801 23.696 206.669 23.2266 206.669C22.8757 206.669 22.5316 206.735 22.1943 206.867C21.8617 206.995 21.4925 207.213 21.0869 207.523L20.5264 206.737C21.3968 206.035 22.3379 205.684 23.3496 205.684C24.1517 205.684 24.7852 205.887 25.25 206.293C25.7194 206.694 25.9541 207.247 25.9541 207.954C25.9541 208.46 25.863 208.925 25.6807 209.348C25.5029 209.772 25.2044 210.221 24.7852 210.695C24.3704 211.169 23.7005 211.809 22.7754 212.616L20.3691 214.715V214.769H25.0039L24.8057 215.822ZM33.7539 208.89C33.7539 210.235 33.5739 211.463 33.2139 212.575C32.8584 213.687 32.3708 214.53 31.751 215.104C31.1357 215.674 30.4202 215.959 29.6045 215.959C28.8024 215.959 28.1872 215.669 27.7588 215.091C27.3304 214.507 27.1162 213.664 27.1162 212.561C27.1162 211.331 27.3031 210.16 27.6768 209.048C28.0505 207.931 28.5426 207.09 29.1533 206.525C29.7686 205.955 30.4704 205.671 31.2588 205.671C32.9222 205.671 33.7539 206.744 33.7539 208.89ZM31.1904 206.655C30.6755 206.655 30.1992 206.919 29.7617 207.448C29.3242 207.972 28.9688 208.708 28.6953 209.656C28.4264 210.599 28.292 211.563 28.292 212.548C28.292 213.331 28.4059 213.933 28.6338 214.352C28.8617 214.772 29.2285 214.981 29.7344 214.981C30.2585 214.981 30.7347 214.721 31.1631 214.202C31.5915 213.682 31.9333 212.935 32.1885 211.96C32.4482 210.984 32.5781 209.952 32.5781 208.863C32.5781 207.391 32.1156 206.655 31.1904 206.655Z" fill="white"/>
<path d="M24.8057 157.822H18.6602L18.8721 156.817L22.0508 153.946C22.5156 153.522 22.9167 153.151 23.2539 152.832C23.5957 152.508 23.876 152.205 24.0947 151.923C24.318 151.635 24.4821 151.353 24.5869 151.075C24.6963 150.792 24.751 150.48 24.751 150.138C24.751 149.687 24.6143 149.33 24.3408 149.065C24.0674 148.801 23.696 148.669 23.2266 148.669C22.8757 148.669 22.5316 148.735 22.1943 148.867C21.8617 148.995 21.4925 149.213 21.0869 149.523L20.5264 148.737C21.3968 148.035 22.3379 147.684 23.3496 147.684C24.1517 147.684 24.7852 147.887 25.25 148.293C25.7194 148.694 25.9541 149.247 25.9541 149.954C25.9541 150.46 25.863 150.925 25.6807 151.348C25.5029 151.772 25.2044 152.221 24.7852 152.695C24.3704 153.169 23.7005 153.809 22.7754 154.616L20.3691 156.715V156.769H25.0039L24.8057 157.822ZM30.377 151.718C31.2064 151.718 31.8649 151.957 32.3525 152.435C32.8447 152.909 33.0908 153.552 33.0908 154.363C33.0908 155.097 32.9245 155.742 32.5918 156.298C32.2591 156.854 31.7943 157.271 31.1973 157.549C30.6003 157.822 29.8984 157.959 29.0918 157.959C28.2122 157.959 27.4603 157.779 26.8359 157.419V156.298C27.5833 156.762 28.3444 156.995 29.1191 156.995C29.9896 156.995 30.6686 156.776 31.1562 156.339C31.6439 155.901 31.8877 155.29 31.8877 154.507C31.8877 153.932 31.7191 153.479 31.3818 153.146C31.0492 152.809 30.5843 152.64 29.9873 152.64C29.7686 152.64 29.5475 152.656 29.3242 152.688C29.1009 152.716 28.7842 152.784 28.374 152.893L27.8682 152.504L29.2148 147.828H33.7812L33.5557 148.874H29.9873L29.1191 151.875C29.5156 151.77 29.9349 151.718 30.377 151.718Z" fill="white"/>
<path d="M22.666 93.7175C23.4954 93.7175 24.154 93.9568 24.6416 94.4353C25.1338 94.9093 25.3799 95.5518 25.3799 96.363C25.3799 97.0968 25.2135 97.7416 24.8809 98.2976C24.5482 98.8536 24.0833 99.2706 23.4863 99.5486C22.8893 99.822 22.1875 99.9587 21.3809 99.9587C20.5013 99.9587 19.7493 99.7787 19.125 99.4187V98.2976C19.8724 98.7625 20.6335 98.9949 21.4082 98.9949C22.2786 98.9949 22.9577 98.7761 23.4453 98.3386C23.9329 97.9011 24.1768 97.2904 24.1768 96.5066C24.1768 95.9324 24.0081 95.4789 23.6709 95.1462C23.3382 94.809 22.8734 94.6404 22.2764 94.6404C22.0576 94.6404 21.8366 94.6563 21.6133 94.6882C21.39 94.7156 21.0732 94.7839 20.6631 94.8933L20.1572 94.5037L21.5039 89.8279H26.0703L25.8447 90.8738H22.2764L21.4082 93.8748C21.8047 93.7699 22.224 93.7175 22.666 93.7175ZM33.7539 92.8904C33.7539 94.2348 33.5739 95.463 33.2139 96.575C32.8584 97.6869 32.3708 98.53 31.751 99.1042C31.1357 99.6739 30.4202 99.9587 29.6045 99.9587C28.8024 99.9587 28.1872 99.6694 27.7588 99.0906C27.3304 98.5072 27.1162 97.6641 27.1162 96.5613C27.1162 95.3308 27.3031 94.1596 27.6768 93.0476C28.0505 91.9311 28.5426 91.0903 29.1533 90.5251C29.7686 89.9555 30.4704 89.6707 31.2588 89.6707C32.9222 89.6707 33.7539 90.7439 33.7539 92.8904ZM31.1904 90.655C30.6755 90.655 30.1992 90.9194 29.7617 91.448C29.3242 91.9721 28.9688 92.7081 28.6953 93.656C28.4264 94.5994 28.292 95.5632 28.292 96.5476C28.292 97.3315 28.4059 97.933 28.6338 98.3523C28.8617 98.7716 29.2285 98.9812 29.7344 98.9812C30.2585 98.9812 30.7347 98.7214 31.1631 98.2019C31.5915 97.6824 31.9333 96.935 32.1885 95.9597C32.4482 94.9845 32.5781 93.9522 32.5781 92.863C32.5781 91.391 32.1156 90.655 31.1904 90.655Z" fill="white"/>
<defs>
<linearGradient id="paint0_linear_509_178" x1="739.136" y1="48.8687" x2="387.309" y2="637.553" gradientUnits="userSpaceOnUse">
<stop stop-color="#35D5A5"/>
<stop offset="0.320833" stop-color="#00C7C5"/>
<stop offset="0.5776" stop-color="#2D9BE0"/>
<stop offset="0.7222" stop-color="#5277F7"/>
<stop offset="0.8013" stop-color="#5B75F6"/>
<stop offset="0.9292" stop-color="#7370F4"/>
<stop offset="1" stop-color="#836DF3"/>
</linearGradient>
<linearGradient id="paint1_linear_509_178" x1="502.777" y1="84.5491" x2="389.364" y2="185.893" gradientUnits="userSpaceOnUse">
<stop stop-color="#FC9F47"/>
<stop offset="0.648958" stop-color="#D73777"/>
<stop offset="1" stop-color="#8F44B2"/>
</linearGradient>
<linearGradient id="paint2_linear_509_178" x1="517.665" y1="103.983" x2="448.052" y2="199.396" gradientUnits="userSpaceOnUse">
<stop stop-color="#FC9F47"/>
<stop offset="0.648958" stop-color="#D73777"/>
<stop offset="1" stop-color="#8F44B2"/>
</linearGradient>
<linearGradient id="paint3_linear_509_178" x1="439.093" y1="104.405" x2="427.828" y2="127.418" gradientUnits="userSpaceOnUse">
<stop stop-color="#FC9F47"/>
<stop offset="0.648958" stop-color="#D73777"/>
<stop offset="1" stop-color="#8F44B2"/>
</linearGradient>
<linearGradient id="paint4_linear_509_178" x1="439.093" y1="123.151" x2="427.828" y2="146.164" gradientUnits="userSpaceOnUse">
<stop stop-color="#FC9F47"/>
<stop offset="0.648958" stop-color="#D73777"/>
<stop offset="1" stop-color="#8F44B2"/>
</linearGradient>
<linearGradient id="paint5_linear_509_178" x1="439.093" y1="141.896" x2="427.828" y2="164.909" gradientUnits="userSpaceOnUse">
<stop stop-color="#FC9F47"/>
<stop offset="0.648958" stop-color="#D73777"/>
<stop offset="1" stop-color="#8F44B2"/>
</linearGradient>
<linearGradient id="paint6_linear_509_178" x1="482.132" y1="89.9963" x2="478.567" y2="93.6378" gradientUnits="userSpaceOnUse">
<stop stop-color="#FC9F47"/>
<stop offset="0.648958" stop-color="#D73777"/>
<stop offset="1" stop-color="#8F44B2"/>
</linearGradient>
<linearGradient id="paint7_linear_509_178" x1="474.633" y1="89.9963" x2="471.068" y2="93.6378" gradientUnits="userSpaceOnUse">
<stop stop-color="#FC9F47"/>
<stop offset="0.648958" stop-color="#D73777"/>
<stop offset="1" stop-color="#8F44B2"/>
</linearGradient>
<linearGradient id="paint8_linear_509_178" x1="482.132" y1="97.4948" x2="478.567" y2="101.136" gradientUnits="userSpaceOnUse">
<stop stop-color="#FC9F47"/>
<stop offset="0.648958" stop-color="#D73777"/>
<stop offset="1" stop-color="#8F44B2"/>
</linearGradient>
</defs>
</svg>
