<svg width="195" height="196" viewBox="0 0 195 196" fill="none" xmlns="http://www.w3.org/2000/svg">
<rect x="14.5" y="15" width="166" height="166" rx="83" fill="#F8FAFF"/>
<path d="M134.366 126.264H133.138V115.204C133.136 114.591 132.982 113.987 132.689 113.449C132.395 112.91 131.972 112.452 131.458 112.119L134.12 108.569C134.258 108.386 134.341 108.169 134.361 107.941C134.382 107.714 134.339 107.486 134.237 107.281C134.135 107.077 133.978 106.906 133.783 106.786C133.59 106.666 133.366 106.602 133.138 106.602C132.486 106.602 131.86 106.343 131.4 105.882C130.939 105.421 130.68 104.796 130.68 104.144V100.458C130.68 98.4659 130.239 96.4987 129.389 94.6973C128.54 92.8958 127.301 91.3047 125.764 90.0381V61.1337C125.764 60.8077 125.635 60.4952 125.404 60.2647C125.174 60.0343 124.861 59.9048 124.535 59.9048H60.6337C60.3077 59.9048 59.9952 60.0343 59.7647 60.2647C59.5343 60.4952 59.4048 60.8077 59.4048 61.1337V107.831C59.4048 108.157 59.5343 108.47 59.7647 108.7C59.9952 108.931 60.3077 109.06 60.6337 109.06H91.9836L100.217 119.645C100.367 119.837 100.569 119.98 100.8 120.057C101.628 120.333 102.349 120.863 102.86 121.571C103.371 122.28 103.645 123.132 103.644 124.006V126.264H99.9578C99.6319 126.264 99.3193 126.394 99.0888 126.624C98.8584 126.855 98.7289 127.167 98.7289 127.493V134.866C98.7289 135.192 98.8584 135.505 99.0888 135.735C99.3193 135.966 99.6319 136.095 99.9578 136.095H134.366C134.692 136.095 135.005 135.966 135.235 135.735C135.466 135.505 135.595 135.192 135.595 134.866V127.493C135.595 127.167 135.466 126.855 135.235 126.624C135.005 126.394 134.692 126.264 134.366 126.264ZM128.222 100.458V104.144C128.222 105.075 128.487 105.987 128.984 106.773C129.482 107.56 130.193 108.189 131.035 108.587L128.836 111.518H122.078V109.964C123.215 109.174 124.144 108.12 124.786 106.892C125.428 105.665 125.763 104.301 125.764 102.916V96.7711C125.764 96.4452 125.635 96.1326 125.404 95.9022C125.174 95.6717 124.861 95.5423 124.535 95.5423C123.917 95.5442 123.305 95.4235 122.734 95.187C122.163 94.9505 121.644 94.603 121.209 94.1647L120.489 93.4445C120.258 93.2141 119.946 93.0846 119.62 93.0845H117.742C115.861 93.0782 114.016 93.599 112.416 94.5879C110.816 95.5768 109.524 96.9943 108.689 98.6796C108.604 98.8502 108.56 99.0383 108.56 99.2289V102.916C108.56 104.301 108.896 105.665 109.538 106.892C110.18 108.12 111.11 109.174 112.247 109.964V111.518H105.506L103.369 108.525C104.187 108.121 104.876 107.498 105.359 106.724C105.842 105.95 106.099 105.057 106.102 104.144V100.458C106.102 97.5245 107.268 94.7114 109.341 92.6373C111.416 90.5631 114.229 89.3979 117.162 89.3979C120.095 89.3979 122.909 90.5631 124.982 92.6373C127.057 94.7114 128.222 97.5245 128.222 100.458ZM117.162 109.06C115.533 109.058 113.971 108.41 112.82 107.258C111.668 106.106 111.02 104.545 111.018 102.916V99.53C111.674 98.3198 112.645 97.31 113.83 96.6079C115.013 95.9057 116.366 95.5375 117.742 95.5423H119.111L119.471 95.9023C120.512 96.9486 121.852 97.6453 123.307 97.8955V102.916C123.304 104.545 122.657 106.106 121.505 107.258C120.353 108.41 118.791 109.058 117.162 109.06ZM114.704 111.149C116.307 111.632 118.017 111.632 119.62 111.149V112.747C119.62 113.399 119.361 114.023 118.9 114.484C118.439 114.945 117.814 115.204 117.162 115.204C116.51 115.204 115.885 114.945 115.424 114.484C114.963 114.023 114.704 113.399 114.704 112.747V111.149ZM61.8625 62.3625H123.307V88.432C121.248 87.374 118.951 86.8634 116.638 86.9493C114.325 87.0352 112.072 87.7146 110.098 88.9225C108.123 90.1303 106.492 91.8257 105.362 93.8459C104.232 95.8661 103.64 98.143 103.644 100.458V104.144C103.641 104.668 103.471 105.176 103.159 105.596C102.847 106.016 102.408 106.326 101.908 106.479L99.7292 103.428C99.7157 103.408 99.6948 103.4 99.6801 103.381L99.6886 103.374L95.4331 98.0553C94.8437 97.3149 94.0277 96.7883 93.1103 96.5563C92.1928 96.3243 91.2245 96.3998 90.3541 96.7711L86.7731 92.1162C89.9784 90.1282 92.292 86.979 93.2311 83.3261C94.1702 79.6732 93.6622 75.7987 91.8131 72.5114C89.964 69.224 86.9168 66.7778 83.3074 65.6833C79.698 64.5888 75.8053 64.9305 72.4418 66.6373C69.0784 68.3441 66.5041 71.2839 65.2562 74.8432C64.0082 78.4025 64.1832 82.3062 65.7445 85.7395C67.3058 89.1729 70.1328 91.8707 73.6354 93.2697C77.1381 94.6687 81.0457 94.6609 84.5427 93.2479L88.4518 98.3306C87.9711 99.0197 87.7 99.8333 87.6715 100.673C87.6429 101.513 87.858 102.343 88.2908 103.063L90.4143 106.602H61.8625V62.3625ZM90.8641 99.2817C91.2587 98.9741 91.7586 98.8343 92.2556 98.8925C92.7526 98.9506 93.2067 99.2022 93.5197 99.5926L96.8979 103.814L93.0122 106.149L90.3983 101.797C90.2153 101.49 90.1213 101.138 90.1267 100.781C90.1265 100.491 90.1929 100.205 90.3207 99.9455C90.4486 99.6855 90.6345 99.4584 90.8641 99.2817ZM82.9796 91.208C81.013 91.875 78.9087 92.0293 76.8659 91.6562C74.823 91.2831 72.9091 90.395 71.3053 89.0759L79.5756 80.7957H91.293C91.0964 82.72 90.4487 84.5707 89.4024 86.1976C88.3561 87.8245 86.9408 89.1815 85.2715 90.1585L81.269 84.9616L79.3225 86.4608L82.9796 91.208ZM80.2957 67.3407C83.1145 67.6277 85.748 68.8786 87.7515 70.8821C89.7551 72.8856 91.0059 75.5191 91.293 78.338H80.2957V67.3407ZM77.838 79.0581L69.5578 87.3383C68.1502 85.62 67.2352 83.5521 66.9101 81.3548C66.585 79.1575 66.8621 76.9132 67.7118 74.8609C68.5616 72.8087 69.9522 71.0254 71.7354 69.7011C73.5186 68.3768 75.6277 67.561 77.838 67.3407V79.0581ZM101.941 117.859L94.4057 108.171L98.3885 105.782L103.873 113.461C103.987 113.62 104.137 113.75 104.311 113.839C104.485 113.929 104.678 113.975 104.873 113.975H112.421C112.689 115.03 113.301 115.964 114.16 116.631C115.018 117.299 116.075 117.661 117.162 117.661C118.25 117.661 119.306 117.299 120.165 116.631C121.023 115.964 121.635 115.03 121.903 113.975H129.451C129.777 113.975 130.09 114.105 130.32 114.335C130.55 114.566 130.68 114.879 130.68 115.204V126.264H106.102V124.006C106.103 122.682 105.708 121.389 104.966 120.293C104.224 119.197 103.17 118.349 101.941 117.859ZM133.138 133.638H101.187V128.722H133.138V133.638Z" fill="#273B98"/>
<path d="M60.6337 136.095H95.0423C95.3682 136.095 95.6807 135.966 95.9112 135.735C96.1417 135.505 96.2712 135.192 96.2712 134.866V131.18C96.2698 129.655 95.9128 128.151 95.2287 126.788C94.5446 125.425 93.5522 124.24 92.3301 123.327C93.1545 122.232 93.6575 120.93 93.7826 119.565C93.9077 118.2 93.6499 116.827 93.0382 115.601C92.4265 114.374 91.485 113.343 90.3195 112.621C89.154 111.9 87.8106 111.519 86.4401 111.519C85.0696 111.519 83.7262 111.9 82.5607 112.621C81.3952 113.343 80.4538 114.374 79.8421 115.601C79.2304 116.827 78.9725 118.2 79.0976 119.565C79.2227 120.93 79.7256 122.232 80.5501 123.327C79.4376 124.16 78.5134 125.217 77.838 126.431C77.1625 125.217 76.2384 124.16 75.1258 123.327C75.9503 122.232 76.4533 120.93 76.5783 119.565C76.7034 118.2 76.4456 116.827 75.8339 115.601C75.2222 114.374 74.2807 113.343 73.1152 112.621C71.9497 111.9 70.6064 111.519 69.2358 111.519C67.8653 111.519 66.5219 111.9 65.3564 112.621C64.1909 113.343 63.2495 114.374 62.6378 115.601C62.026 116.827 61.7682 118.2 61.8933 119.565C62.0184 120.93 62.5214 122.232 63.3458 123.327C62.1238 124.24 61.1313 125.425 60.4472 126.788C59.7631 128.151 59.4062 129.655 59.4048 131.18V134.866C59.4048 135.192 59.5343 135.505 59.7647 135.735C59.9952 135.966 60.3077 136.095 60.6337 136.095ZM81.5246 118.891C81.5196 118.096 81.7076 117.311 82.0725 116.605C82.4374 115.898 82.9682 115.29 83.6195 114.834C84.2708 114.378 85.023 114.087 85.8117 113.985C86.6004 113.883 87.402 113.974 88.1477 114.251C88.8934 114.527 89.5609 114.98 90.093 115.571C90.6251 116.162 91.0059 116.873 91.2026 117.644C91.3995 118.414 91.4064 119.221 91.2228 119.995C91.0393 120.769 90.6707 121.486 90.1489 122.086C87.7725 121.111 85.1078 121.111 82.7314 122.086C81.9579 121.201 81.5295 120.067 81.5246 118.891ZM86.4401 123.807C88.395 123.809 90.2693 124.586 91.6516 125.968C93.034 127.35 93.8115 129.225 93.8134 131.18V133.638H79.0668V131.18C79.0688 129.225 79.8463 127.35 81.2286 125.968C82.6109 124.586 84.4852 123.809 86.4401 123.807ZM64.3203 118.891C64.3153 118.096 64.5033 117.311 64.8682 116.605C65.2331 115.898 65.7639 115.29 66.4152 114.834C67.0665 114.378 67.8187 114.087 68.6074 113.985C69.3961 113.883 70.1977 113.974 70.9434 114.251C71.6891 114.527 72.3566 114.98 72.8887 115.571C73.4208 116.162 73.8015 116.873 73.9984 117.644C74.1951 118.414 74.2021 119.221 74.0185 119.995C73.835 120.769 73.4665 121.486 72.9445 122.086C70.5682 121.111 67.9035 121.111 65.5271 122.086C64.7536 121.201 64.3252 120.067 64.3203 118.891ZM61.8625 131.18C61.8625 129.224 62.6394 127.349 64.0221 125.966C65.4049 124.583 67.2803 123.807 69.2358 123.807C71.1913 123.807 73.0667 124.583 74.4495 125.966C75.8323 127.349 76.6091 129.224 76.6091 131.18V133.638H61.8625V131.18Z" fill="#273B98"/>
<path d="M120.849 67.2781H98.7289V69.7358H120.849V67.2781Z" fill="#273B98"/>
<path d="M120.849 72.1935H98.7289V74.6512H120.849V72.1935Z" fill="#273B98"/>
<path d="M120.849 77.109H98.7289V79.5668H120.849V77.109Z" fill="#273B98"/>
<path d="M120.849 82.0247H98.7289V84.4824H120.849V82.0247Z" fill="#273B98"/>
<rect x="14.5" y="15" width="166" height="166" rx="83" stroke="#EAEFFF" stroke-opacity="0.21" stroke-width="29"/>
</svg>
