<svg width="195" height="196" viewBox="0 0 195 196" fill="none" xmlns="http://www.w3.org/2000/svg">
<rect x="14.5" y="15" width="166" height="166" rx="83" fill="#F8FAFF"/>
<path d="M124.167 71.3334H114.008V68.7937C114.007 68.5968 113.96 68.4028 113.872 68.2267C113.784 68.0506 113.657 67.897 113.5 67.7778L103.341 60.1588C103.122 59.9926 102.854 59.9033 102.579 59.9048H82.2619C81.9251 59.9048 81.6021 60.0386 81.364 60.2767C81.1259 60.5149 80.992 60.8379 80.992 61.1746V71.3334H70.8333C70.4965 71.3334 70.1736 71.4672 69.9354 71.7053C69.6973 71.9435 69.5635 72.2665 69.5635 72.6032V103.079H72.1031V73.8731H80.992V81.4921C80.9906 81.7671 81.0798 82.0349 81.246 82.254L88.865 92.4127C88.9843 92.5695 89.1379 92.6967 89.314 92.7848C89.4901 92.8728 89.684 92.9193 89.881 92.9207H96.2301V103.079H98.7698V92.9207H112.738C113.075 92.9207 113.398 92.7869 113.636 92.5487C113.874 92.3106 114.008 91.9876 114.008 91.6508V73.8731H122.897V103.079H125.437V72.6032C125.437 72.2665 125.303 71.9435 125.065 71.7053C124.826 71.4672 124.503 71.3334 124.167 71.3334ZM88.6111 87.8413L83.5317 81.0731V64.235L88.6111 69.3143V87.8413ZM85.3222 62.4445H102.16L108.929 67.5238H90.4016L85.3222 62.4445ZM111.468 90.381H91.1508V70.0635H111.468V90.381Z" fill="#273B98"/>
<path d="M61.9445 67.5238H64.4842V64.9842H67.0238V62.4445H64.4842V59.9048H61.9445V62.4445H59.4048V64.9842H61.9445V67.5238Z" fill="#273B98"/>
<path d="M133.056 62.4445V59.9048H130.516V62.4445H127.976V64.9842H130.516V67.5238H133.056V64.9842H135.595V62.4445H133.056Z" fill="#273B98"/>
<path d="M81.3985 126L74.6429 123.752V122.089C75.4298 121.505 76.0692 120.745 76.5102 119.869C76.9511 118.994 77.1814 118.028 77.1825 117.048V115.765C77.4467 115.773 77.7061 115.693 77.9191 115.537C78.0845 115.421 78.2194 115.267 78.3123 115.088C78.4052 114.909 78.4533 114.709 78.4524 114.508V113.238C78.4524 111.218 77.6497 109.279 76.2208 107.85C74.792 106.422 72.8541 105.619 70.8334 105.619C68.8126 105.619 66.8747 106.422 65.4459 107.85C64.017 109.279 63.2143 111.218 63.2143 113.238V114.508C63.2134 114.709 63.2615 114.909 63.3544 115.088C63.4473 115.267 63.5822 115.421 63.7476 115.537C63.9606 115.693 64.22 115.773 64.4842 115.765V117.048C64.4863 118.734 65.1577 120.351 66.3508 121.543C66.5605 121.742 66.7855 121.925 67.0238 122.089V123.752L60.2683 126C60.0175 126.088 59.7999 126.25 59.6453 126.466C59.4908 126.682 59.4067 126.941 59.4048 127.206V134.825C59.4048 135.162 59.5386 135.485 59.7767 135.723C60.0149 135.961 60.3378 136.095 60.6746 136.095H80.9921C81.3289 136.095 81.6518 135.961 81.89 135.723C82.1281 135.485 82.2619 135.162 82.2619 134.825V127.206C82.26 126.941 82.176 126.682 82.0214 126.466C81.8668 126.25 81.6492 126.088 81.3985 126ZM74.6429 117.048C74.6429 117.548 74.5444 118.043 74.3529 118.505C74.1615 118.968 73.8808 119.388 73.5271 119.741C73.1734 120.095 72.7534 120.376 72.2912 120.567C71.829 120.759 71.3336 120.857 70.8334 120.857C70.3331 120.857 69.8377 120.759 69.3755 120.567C68.9133 120.376 68.4934 120.095 68.1396 119.741C67.7859 119.388 67.5053 118.968 67.3138 118.505C67.1224 118.043 67.0238 117.548 67.0238 117.048V115.003L67.9508 114.686L68.6619 115.409C68.9021 115.646 69.2262 115.779 69.5635 115.778C69.7012 115.775 69.838 115.754 69.9699 115.714L73.373 114.571L74.6429 115.003V117.048ZM65.7794 112.743C65.9052 111.49 66.4919 110.328 67.4258 109.483C68.3596 108.639 69.5741 108.171 70.8334 108.171C72.0926 108.171 73.3071 108.639 74.2409 109.483C75.1748 110.328 75.7615 111.49 75.8873 112.743L73.7794 112.032C73.5158 111.943 73.2303 111.943 72.9667 112.032L69.9064 113.06L69.1953 112.337C68.9551 112.099 68.631 111.967 68.2937 111.968C68.156 111.971 68.0192 111.992 67.8873 112.032L65.7794 112.743ZM69.5635 133.556H61.9445V128.12L66.9985 126.432L69.5635 128.997V133.556ZM69.3985 125.251C69.5045 125.074 69.5615 124.872 69.5635 124.667V123.27C69.9821 123.35 70.4071 123.393 70.8334 123.397C71.2596 123.393 71.6847 123.351 72.1032 123.27V124.667C72.1052 124.872 72.1622 125.074 72.2683 125.251L70.8334 126.686L69.3985 125.251ZM79.7223 133.556H72.1032V128.997L74.6683 126.432L79.7223 128.12V133.556Z" fill="#273B98"/>
<path d="M108.065 126L101.31 123.752V122.089C102.096 121.505 102.736 120.745 103.177 119.869C103.618 118.994 103.848 118.028 103.849 117.048V115.765C104.113 115.773 104.373 115.693 104.586 115.537C104.751 115.421 104.886 115.267 104.979 115.088C105.072 114.909 105.12 114.709 105.119 114.508V113.238C105.119 111.218 104.316 109.279 102.887 107.85C101.459 106.422 99.5207 105.619 97.5 105.619C95.4793 105.619 93.5414 106.422 92.1125 107.85C90.6837 109.279 89.8809 111.218 89.8809 113.238V114.508C89.8801 114.709 89.9281 114.909 90.021 115.088C90.1139 115.267 90.2488 115.421 90.4143 115.537C90.6272 115.693 90.8866 115.773 91.1508 115.765V117.048C91.1529 118.734 91.8243 120.351 93.0175 121.543C93.2271 121.742 93.4521 121.925 93.6905 122.089V123.752L86.9349 126C86.6841 126.088 86.4666 126.25 86.312 126.466C86.1574 126.682 86.0734 126.941 86.0714 127.206V134.825C86.0714 135.162 86.2052 135.485 86.4433 135.723C86.6815 135.961 87.0045 136.095 87.3413 136.095H107.659C107.996 136.095 108.319 135.961 108.557 135.723C108.795 135.485 108.929 135.162 108.929 134.825V127.206C108.927 126.941 108.842 126.682 108.688 126.466C108.533 126.25 108.316 126.088 108.065 126ZM101.31 117.048C101.31 118.058 100.908 119.027 100.194 119.741C99.4793 120.456 98.5103 120.857 97.5 120.857C96.4896 120.857 95.5206 120.456 94.8062 119.741C94.0918 119.027 93.6905 118.058 93.6905 117.048V115.003L94.6175 114.686L95.3286 115.409C95.5687 115.646 95.8928 115.779 96.2301 115.778C96.3678 115.775 96.5046 115.754 96.6365 115.714L100.04 114.571L101.31 115.003V117.048ZM92.446 112.743C92.5718 111.49 93.1586 110.328 94.0924 109.483C95.0263 108.639 96.2407 108.171 97.5 108.171C98.7593 108.171 99.9737 108.639 100.908 109.483C101.841 110.328 102.428 111.49 102.554 112.743L100.446 112.032C100.182 111.943 99.8969 111.943 99.6333 112.032L96.573 113.06L95.8619 112.337C95.6217 112.099 95.2977 111.967 94.9603 111.968C94.8226 111.971 94.6858 111.992 94.5539 112.032L92.446 112.743ZM96.2301 133.556H88.6111V128.12L93.6651 126.432L96.2301 128.997V133.556ZM96.0651 125.251C96.1712 125.074 96.2281 124.872 96.2301 124.667V123.27C96.6487 123.35 97.0737 123.393 97.5 123.397C97.9263 123.393 98.3513 123.351 98.7698 123.27V124.667C98.7718 124.872 98.8288 125.074 98.9349 125.251L97.5 126.686L96.0651 125.251ZM106.389 133.556H98.7698V128.997L101.335 126.432L106.389 128.12V133.556Z" fill="#273B98"/>
<path d="M134.732 126L127.976 123.752V122.089C128.763 121.505 129.402 120.745 129.843 119.869C130.284 118.994 130.515 118.028 130.516 117.048V115.765C130.78 115.773 131.039 115.693 131.252 115.537C131.418 115.421 131.553 115.267 131.646 115.088C131.739 114.909 131.787 114.709 131.786 114.508V113.238C131.786 111.218 130.983 109.279 129.554 107.85C128.125 106.422 126.187 105.619 124.167 105.619C122.146 105.619 120.208 106.422 118.779 107.85C117.35 109.279 116.548 111.218 116.548 113.238V114.508C116.547 114.709 116.595 114.909 116.688 115.088C116.78 115.267 116.916 115.421 117.081 115.537C117.294 115.693 117.553 115.773 117.818 115.765V117.048C117.819 118.734 118.491 120.351 119.684 121.543C119.894 121.742 120.119 121.925 120.357 122.089V123.752L113.601 126C113.351 126.088 113.133 126.25 112.979 126.466C112.824 126.682 112.74 126.941 112.738 127.206V134.825C112.738 135.162 112.872 135.485 113.11 135.723C113.348 135.961 113.671 136.095 114.008 136.095H134.325C134.662 136.095 134.985 135.961 135.223 135.723C135.461 135.485 135.595 135.162 135.595 134.825V127.206C135.593 126.941 135.509 126.682 135.355 126.466C135.2 126.25 134.982 126.088 134.732 126ZM127.976 117.048C127.976 118.058 127.575 119.027 126.86 119.741C126.146 120.456 125.177 120.857 124.167 120.857C123.156 120.857 122.187 120.456 121.473 119.741C120.759 119.027 120.357 118.058 120.357 117.048V115.003L121.284 114.686L121.995 115.409C122.235 115.646 122.559 115.779 122.897 115.778C123.035 115.775 123.171 115.754 123.303 115.714L126.706 114.571L127.976 115.003V117.048ZM119.113 112.743C119.239 111.49 119.825 110.328 120.759 109.483C121.693 108.639 122.907 108.171 124.167 108.171C125.426 108.171 126.64 108.639 127.574 109.483C128.508 110.328 129.095 111.49 129.22 112.743L127.113 112.032C126.849 111.943 126.564 111.943 126.3 112.032L123.239 113.06L122.529 112.337C122.289 112.099 121.964 111.967 121.627 111.968C121.489 111.971 121.352 111.992 121.22 112.032L119.113 112.743ZM122.897 133.556H115.278V128.12L120.332 126.432L122.897 128.997V133.556ZM122.732 125.251C122.838 125.074 122.895 124.872 122.897 124.667V123.27C123.315 123.35 123.74 123.393 124.167 123.397C124.593 123.393 125.018 123.351 125.437 123.27V124.667C125.439 124.872 125.496 125.074 125.601 125.251L124.167 126.686L122.732 125.251ZM133.056 133.556H125.437V128.997L128.001 126.432L133.056 128.12V133.556Z" fill="#273B98"/>
<rect x="14.5" y="15" width="166" height="166" rx="83" stroke="#EAEFFF" stroke-opacity="0.21" stroke-width="29"/>
</svg>
